<svg width="16" height="16" viewBox="0 0 16 16" fill="none" xmlns="http://www.w3.org/2000/svg">
                <path d="M7.46696 11.0667C7.73362 11.4 8.26696 11.4 8.53362 11.0667L12.5336 6.86667C12.867 6.53333 12.5336 6 12.0003 6H9.33362C9.33362 6 9.46696 2.93333 9.33362 1.33333C9.26696 0.6 8.73362 0 8.00029 0C7.26696 0 6.73362 0.6 6.66696 1.33333C6.53362 2.86667 6.66696 6 6.66696 6H4.00029C3.46696 6 3.13362 6.53333 3.46696 6.93333L7.46696 11.0667Z" fill="white" />
                <path d="M12.6667 12.6499H3.33333C2.6 12.6499 2 13.2499 2 13.9832C2 14.3832 2.26667 14.6499 2.66667 14.6499H13.3333C13.7333 14.6499 14 14.3832 14 13.9832C14 13.2499 13.4 12.6499 12.6667 12.6499Z" fill="white" />
            </svg>