<svg width="6" height="6" viewBox="0 0 6 6" fill="none" xmlns="http://www.w3.org/2000/svg">
<path d="M4.74484 0.499959C4.95343 0.291373 5.29162 0.291373 5.5002 0.499959C5.70879 0.708546 5.70879 1.04673 5.5002 1.25532L0.968047 5.78748C0.75946 5.99606 0.421274 5.99606 0.212687 5.78748C0.00410041 5.57889 0.00410057 5.2407 0.212687 5.03212L4.74484 0.499959Z" fill="white"/>
<path d="M5.5002 5.03212C5.70879 5.2407 5.70879 5.57889 5.5002 5.78748C5.29162 5.99606 4.95343 5.99606 4.74484 5.78748L0.212688 1.25532C0.00410108 1.04673 0.00410073 0.708546 0.212688 0.499959C0.421274 0.291372 0.75946 0.291372 0.968047 0.499959L5.5002 5.03212Z" fill="white"/>
</svg>
