<svg width="8" height="10" viewBox="0 0 8 10" fill="none" xmlns="http://www.w3.org/2000/svg">
<path d="M3.94727 4.47367C5.18264 4.47367 6.18411 3.47221 6.18411 2.23684C6.18411 1.00147 5.18264 0 3.94727 0C2.7119 0 1.71044 1.00147 1.71044 2.23684C1.71044 3.47221 2.7119 4.47367 3.94727 4.47367Z" fill="#1B9B48"/>
<path d="M3.94727 4.47367C5.18264 4.47367 6.18411 3.47221 6.18411 2.23684C6.18411 1.00147 5.18264 0 3.94727 0C2.7119 0 1.71044 1.00147 1.71044 2.23684C1.71044 3.47221 2.7119 4.47367 3.94727 4.47367Z" fill="currentColor"/>
<path d="M3.94736 5C1.7673 5 0 6.76732 0 8.94736C0 9.52871 0.471289 10 1.05264 10H6.84211C7.42346 10 7.89475 9.52871 7.89475 8.94736C7.89473 6.76732 6.12742 5 3.94736 5Z" fill="#1B9B48"/>
<path d="M3.94736 5C1.7673 5 0 6.76732 0 8.94736C0 9.52871 0.471289 10 1.05264 10H6.84211C7.42346 10 7.89475 9.52871 7.89475 8.94736C7.89473 6.76732 6.12742 5 3.94736 5Z" fill="currentColor"/>
</svg>
