<svg width="10" height="13" viewBox="0 0 10 13" fill="none" xmlns="http://www.w3.org/2000/svg">
<path d="M9 5.41739H3V3.90086C3 2.76347 3.75 1.7344 4.8 1.62608C6 1.51776 7 2.54683 7 3.79254C7 4.11751 7.2 4.33416 7.5 4.33416H8C8.3 4.33416 8.5 4.11751 8.5 3.79254C8.5 1.7344 7 0.0553974 5.1 0.00123589C3.15 -0.0529256 1.5 1.68024 1.5 3.79254V5.41739H1C0.45 5.41739 0 5.90484 0 6.50062V10.2919C0 11.8084 1.1 13 2.5 13H7.5C8.9 13 10 11.8084 10 10.2919V6.50062C10 5.90484 9.55 5.41739 9 5.41739ZM5.5 9.58782V10.2919C5.5 10.5627 5.25 10.8335 5 10.8335C4.75 10.8335 4.5 10.5627 4.5 10.2919V9.58782C4.2 9.42534 4 9.04621 4 8.66708C4 8.0713 4.45 7.58385 5 7.58385C5.55 7.58385 6 8.0713 6 8.66708C6 9.04621 5.8 9.42534 5.5 9.58782Z" fill="currentColor"/>
</svg>
