<svg width="10" height="12" viewBox="0 0 10 12" fill="none" xmlns="http://www.w3.org/2000/svg">
<path d="M9.66683 11.8334V0.166748H2.0835C1.61937 0.166748 1.17425 0.351123 0.846059 0.679311C0.517871 1.0075 0.333496 1.45262 0.333496 1.91675V10.0834C0.333496 10.5475 0.517871 10.9927 0.846059 11.3209C1.17425 11.649 1.61937 11.8334 2.0835 11.8334H9.66683ZM2.66683 2.50008H7.3335V3.66675H2.66683V2.50008ZM1.50016 10.0834C1.50124 10.0058 1.51779 9.92923 1.54884 9.85811C1.57989 9.78699 1.62482 9.72279 1.681 9.66925C1.73271 9.61471 1.79519 9.57151 1.86448 9.54239C1.93376 9.51327 2.00835 9.49886 2.0835 9.50008H8.50016V10.6667H2.0835C1.92879 10.6667 1.78041 10.6053 1.67102 10.4959C1.56162 10.3865 1.50016 10.2381 1.50016 10.0834Z" fill="currentColor"/>
</svg>
