<svg width="12" height="15" viewBox="0 0 12 15" fill="none" xmlns="http://www.w3.org/2000/svg">
<path fill-rule="evenodd" clip-rule="evenodd" d="M12 2.53428V8.59006C12 8.59006 11.9819 8.98238 11.9459 9.15462C11.7414 10.1306 10.7568 12.688 6.01308 14.9934C6.01276 14.9956 6.01245 14.9978 6.01183 15C6.01093 14.9994 6.01001 14.9989 6.00911 14.9985C6.00815 14.9981 6.00719 14.9977 6.00623 14.9972C6.00478 14.9978 6.00348 14.9983 6.00221 14.9989C6.00157 14.9992 6.00095 14.9996 6.00031 15C6 14.9978 5.99937 14.9956 5.99907 14.9934C1.19652 12.6592 0.246155 10.0662 0.058197 9.11835C0.0578766 9.1171 0 8.69258 0 8.44156V2.53428H0.181732C3.34837 2.48083 6.09087 0 6.09087 0C6.09087 0 8.83336 2.48083 12 2.53428ZM6.42224 5.51157L7.14432 4.8252H7.14023C6.14951 4.57863 5.09935 4.65993 4.16426 5.05556C3.22916 5.45119 2.46544 6.13734 2 7C2.31004 7.57455 2.75879 8.07584 3.2973 8.46144L4.42325 7.40103C4.34898 7.13943 4.34891 6.86397 4.42302 6.60234C4.49713 6.34071 4.64284 6.10214 4.84544 5.91063C5.04807 5.71912 5.30046 5.58141 5.57726 5.51135C5.85405 5.4413 6.14548 5.44138 6.42224 5.51157ZM8.69687 5.54021C8.69609 5.53966 8.69533 5.53911 8.69455 5.53856H8.69862L8.69687 5.54021ZM10 7C9.68631 6.42627 9.2384 5.9256 8.69687 5.54021L7.57266 6.59897C7.64693 6.86057 7.647 7.13603 7.57289 7.39766C7.49878 7.65929 7.35309 7.89786 7.15047 8.08937C6.94786 8.28088 6.69547 8.41859 6.41867 8.48865C6.14188 8.5587 5.85043 8.55862 5.57368 8.48843L4.85161 9.1748C5.84349 9.42331 6.89552 9.343 7.83235 8.94727C8.7692 8.55151 9.53424 7.86426 10 7ZM8.86591 4.25836C8.71251 4.11339 8.4726 4.11339 8.31921 4.25836L3.13002 9.16325C2.96391 9.32027 2.96391 9.58463 3.13002 9.74164C3.28342 9.88661 3.52332 9.88661 3.67671 9.74164L8.86591 4.83675C9.03201 4.67973 9.03201 4.41537 8.86591 4.25836Z" fill="#4AB770"/>
</svg>
