<svg width="12" height="12" viewBox="0 0 12 12" fill="none" xmlns="http://www.w3.org/2000/svg">
<path d="M1.09091 8.18182V7.09091C1.09091 6.78982 0.846545 6.54545 0.545455 6.54545C0.244364 6.54545 0 6.78982 0 7.09091V8.18182C0 8.48291 0.244364 8.72727 0.545455 8.72727C0.846545 8.72727 1.09091 8.48291 1.09091 8.18182Z" fill="#4A4A4A"/>
<path d="M3.27273 0.545455C3.27273 0.847091 3.51709 1.09091 3.81818 1.09091H4.90909C5.21018 1.09091 5.45455 0.846545 5.45455 0.545455C5.45455 0.244364 5.21018 0 4.90909 0H3.81818C3.51709 0 3.27273 0.244364 3.27273 0.545455Z" fill="#4A4A4A"/>
<path d="M0.545455 5.45455C0.847091 5.45455 1.09091 5.21018 1.09091 4.90909V3.81818C1.09091 3.51709 0.846545 3.27273 0.545455 3.27273C0.244364 3.27273 0 3.51709 0 3.81818V4.90909C0 5.21018 0.244364 5.45455 0.545455 5.45455Z" fill="#4A4A4A"/>
<path d="M10.3636 1.09091H10.9091V1.63636C10.9091 1.93745 11.1535 2.18182 11.4545 2.18182C11.7556 2.18182 12 1.93745 12 1.63636V1.09091C12 0.488182 11.5118 0 10.9091 0H10.3636C10.0625 0 9.81818 0.244364 9.81818 0.545455C9.81818 0.846545 10.0625 1.09091 10.3636 1.09091Z" fill="#4A4A4A"/>
<path d="M6.54545 0.545455C6.54545 0.846545 6.78982 1.09091 7.09091 1.09091H8.18182C8.48291 1.09091 8.72727 0.846545 8.72727 0.545455C8.72727 0.244364 8.48291 0 8.18182 0H7.09091C6.78982 0 6.54545 0.244364 6.54545 0.545455Z" fill="#4A4A4A"/>
<path d="M1.63636 10.9091H1.09091V10.3636C1.09091 10.0625 0.846545 9.81818 0.545455 9.81818C0.244364 9.81818 0 10.0625 0 10.3636V10.9091C0 11.5118 0.488182 12 1.09091 12H1.63636C1.93745 12 2.18182 11.7556 2.18182 11.4545C2.18182 11.1535 1.93745 10.9091 1.63636 10.9091Z" fill="#4A4A4A"/>
<path d="M1.09091 1.63636V1.09091H1.63636C1.93745 1.09091 2.18182 0.846545 2.18182 0.545455C2.18182 0.244364 1.93745 0 1.63636 0H1.09091C0.488182 0 0 0.488182 0 1.09091V1.63636C0 1.93745 0.244364 2.18182 0.545455 2.18182C0.846545 2.18182 1.09091 1.93745 1.09091 1.63636Z" fill="#4A4A4A"/>
<path d="M10.9091 3.81818V4.90964C10.9091 5.21073 11.1535 5.45509 11.4545 5.45509C11.7556 5.45509 12 5.21073 12 4.90964V3.81818C12 3.51709 11.7556 3.27273 11.4545 3.27273C11.1535 3.27273 10.9091 3.51709 10.9091 3.81818Z" fill="#4A4A4A"/>
<path d="M11.4545 6.54545H10.4924C10.0789 6.54545 9.70146 6.312 9.51655 5.94218L9.42327 5.75564C9.33109 5.57127 9.14236 5.45455 8.93564 5.45455H6.33709C6.13036 5.45455 5.94164 5.57127 5.84945 5.75618L5.75618 5.94273C5.57127 6.312 5.19327 6.54545 4.78036 6.54545H3.81818C3.51709 6.54545 3.27273 6.78982 3.27273 7.09091V11.4545C3.27273 11.7556 3.51709 12 3.81818 12H11.4545C11.7556 12 12 11.7556 12 11.4545V7.09091C12 6.78982 11.7556 6.54545 11.4545 6.54545ZM7.63636 11.4545C6.43145 11.4545 5.45455 10.4776 5.45455 9.27273C5.45455 8.06782 6.43145 7.09091 7.63636 7.09091C8.84127 7.09091 9.81818 8.06782 9.81818 9.27273C9.81818 10.4776 8.84127 11.4545 7.63636 11.4545Z" fill="#4A4A4A"/>
<path d="M7.63636 10.3636C8.23886 10.3636 8.72727 9.87522 8.72727 9.27273C8.72727 8.67024 8.23886 8.18182 7.63636 8.18182C7.03387 8.18182 6.54545 8.67024 6.54545 9.27273C6.54545 9.87522 7.03387 10.3636 7.63636 10.3636Z" fill="#4A4A4A"/>
</svg>
