<svg width="21" height="16" viewBox="0 0 21 16" fill="none" xmlns="http://www.w3.org/2000/svg">
<path d="M18.2337 2.78261H16.1467L14.9946 1.04348C14.5598 0.391304 13.7989 0 13.0163 0H8.2337C7.45109 0 6.69022 0.391304 6.25543 1.04348L5.10326 2.78261H3.0163C1.69022 2.78261 0.625 3.84783 0.625 5.17391V13.6087C0.625 14.9348 1.69022 16 3.0163 16H18.2337C19.5598 16 20.625 14.9348 20.625 13.6087V5.17391C20.625 3.84783 19.5598 2.78261 18.2337 2.78261ZM10.625 14.0435C7.64674 14.0435 5.2337 11.6304 5.2337 8.65217C5.2337 5.67391 7.64674 3.28261 10.625 3.28261C13.6033 3.28261 16.0163 5.69565 16.0163 8.67391C16.0163 11.6304 13.6033 14.0435 10.625 14.0435ZM17.9293 6.15217C17.9076 6.15217 17.8859 6.15217 17.8424 6.15217H16.9728C16.5815 6.13043 16.2772 5.80435 16.2989 5.41304C16.3207 5.04348 16.6033 4.76087 16.9728 4.73913H17.8424C18.2337 4.71739 18.5598 5.02174 18.5815 5.41304C18.6033 5.80435 18.3207 6.13043 17.9293 6.15217Z" fill="white"/>
</svg>
