<svg width="17" height="17" viewBox="0 0 17 17" fill="none" xmlns="http://www.w3.org/2000/svg">
<g clip-path="url(#clip0_1926_1260)">
<path d="M0 5.71533L8.5 15.6808L4.72223 5.71533H0Z" fill="#5EAEC5"/>
<path d="M12.2778 5.71533L8.5 15.6808L17 5.71533H12.2778Z" fill="#86C6D2"/>
<path d="M8.49994 5.7154H12.2777L8.49994 1.31885L4.72217 5.7154H8.49994Z" fill="#BAF0F0"/>
<path d="M8.49994 5.71533H4.72217L8.49994 15.6808L12.2777 5.71533H8.49994Z" fill="#44A8B9"/>
<path d="M3.81034 1.31885L0 5.7154H4.72223L3.81034 1.31885Z" fill="#A0DCE6"/>
<path d="M17.0001 5.7154L13.1897 1.31885L12.2778 5.7154H17.0001Z" fill="#BEE6E6"/>
<path d="M13.1897 1.31885H8.5L12.2778 5.7154L13.1897 1.31885Z" fill="#B4E6F0"/>
<path d="M8.5002 1.31885H3.81055L4.72243 5.7154L8.5002 1.31885Z" fill="#B4E6F0"/>
</g>
<defs>
<clipPath id="clip0_1926_1260">
<rect width="17" height="17" fill="white"/>
</clipPath>
</defs>
</svg>
