<svg width="20" height="20" viewBox="0 0 20 20" fill="none" xmlns="http://www.w3.org/2000/svg">
<path d="M15.8437 8.69994H13.066H7.51042V6.75549C7.51042 5.29716 8.55208 3.97771 10.0104 3.83882C11.6771 3.69994 13.066 5.01938 13.066 6.6166C13.066 7.03327 13.3437 7.31105 13.7604 7.31105H14.4549C14.8715 7.31105 15.1493 7.03327 15.1493 6.6166C15.1493 3.97771 13.066 1.82494 10.4271 1.75549C7.71875 1.68605 5.42708 3.90827 5.42708 6.6166V8.69994H4.73264C3.96875 8.69994 3.34375 9.32494 3.34375 10.0888V14.9499C3.34375 16.8944 4.87153 18.4222 6.81597 18.4222H13.7604C15.7049 18.4222 17.2326 16.8944 17.2326 14.9499V10.0888C17.2326 9.32494 16.6076 8.69994 15.8437 8.69994ZM10.9826 14.0472V14.9499C10.9826 15.2972 10.6354 15.6444 10.2882 15.6444C9.94097 15.6444 9.59375 15.2972 9.59375 14.9499V14.0472C9.17708 13.8388 8.8993 13.3527 8.8993 12.8666C8.8993 12.1027 9.5243 11.4777 10.2882 11.4777C11.0521 11.4777 11.6771 12.1027 11.6771 12.8666C11.6771 13.3527 11.3993 13.8388 10.9826 14.0472Z" fill="#777E90"/>
</svg>
