<svg width="15" height="15" viewBox="0 0 15 15" fill="none" xmlns="http://www.w3.org/2000/svg">
<path fill-rule="evenodd" clip-rule="evenodd" d="M2.5 0H12.5C13.8809 0 15 1.11938 15 2.5V12.5C15 13.8806 13.8809 15 12.5 15H2.5C1.11914 15 0 13.8806 0 12.5V2.5C0 1.11938 1.11914 0 2.5 0ZM5 5.375H2C1.90039 5.375 1.80518 5.33545 1.73486 5.26514C1.71533 5.24561 1.69824 5.22412 1.68359 5.20117C1.646 5.1416 1.625 5.07178 1.625 5V2C1.625 1.95898 1.63184 1.9187 1.64453 1.88062C1.6626 1.82617 1.69336 1.77612 1.73486 1.73486L1.75342 1.71777L1.78027 1.69604C1.80029 1.6814 1.82178 1.66895 1.84424 1.65894L1.84912 1.65674C1.896 1.63599 1.94727 1.625 2 1.625H5C5.01758 1.625 5.03564 1.62622 5.05322 1.62866L5.07666 1.63281L5.09473 1.63696C5.10889 1.64062 5.12256 1.64502 5.13574 1.65039C5.17822 1.66675 5.21826 1.69165 5.25244 1.72266L5.26514 1.73486C5.33545 1.80518 5.375 1.90063 5.375 2V5C5.375 5.09937 5.33545 5.19482 5.26514 5.26514C5.19482 5.33545 5.09961 5.375 5 5.375ZM10 5.375H13C13.0996 5.375 13.1948 5.33545 13.2651 5.26514C13.3354 5.19482 13.375 5.09937 13.375 5V2C13.375 1.90063 13.3354 1.80518 13.2651 1.73486C13.2534 1.7229 13.2407 1.71167 13.2275 1.70166C13.208 1.68652 13.187 1.67358 13.1646 1.66284C13.1597 1.6604 13.1533 1.65796 13.1484 1.65576C13.1021 1.63574 13.0518 1.625 13 1.625H10C9.94531 1.625 9.8916 1.63696 9.84277 1.65967C9.80322 1.67798 9.7666 1.70337 9.73486 1.73486C9.66455 1.80518 9.625 1.90063 9.625 2V5C9.625 5.09937 9.66455 5.19482 9.73486 5.26514C9.74561 5.27563 9.75684 5.2854 9.76807 5.29443C9.77148 5.29712 9.7749 5.2998 9.77832 5.30249C9.78174 5.30493 9.78516 5.30737 9.78857 5.30981C9.79004 5.31104 9.79199 5.31177 9.79346 5.31299C9.85156 5.35156 9.92041 5.37329 9.99121 5.375C9.99414 5.375 9.99707 5.375 10 5.375ZM2 13.375C1.90039 13.375 1.80518 13.3354 1.73486 13.2651L1.7251 13.2549C1.69385 13.2209 1.66846 13.1816 1.65186 13.1394C1.63428 13.0955 1.625 13.0481 1.625 13V10C1.625 9.97144 1.62842 9.94336 1.63477 9.91602C1.6499 9.8479 1.68457 9.78491 1.73486 9.73486C1.80518 9.66455 1.90039 9.625 2 9.625H5C5.05469 9.625 5.10791 9.63696 5.15625 9.65918L5.16357 9.6626C5.20068 9.68066 5.23535 9.70483 5.26514 9.73486C5.30127 9.77124 5.32959 9.81421 5.34814 9.86084C5.35449 9.87622 5.35938 9.89209 5.36328 9.9082L5.36865 9.93237C5.37305 9.95435 5.375 9.97729 5.375 10V13C5.375 13.0452 5.3667 13.0894 5.35156 13.1309C5.33301 13.1807 5.30371 13.2268 5.26514 13.2651C5.19482 13.3354 5.09961 13.375 5 13.375H2ZM7 5.375H6.5C6.40039 5.375 6.30518 5.33545 6.23486 5.26514C6.19385 5.22388 6.16309 5.17407 6.14453 5.11987C6.13184 5.08154 6.125 5.04102 6.125 5V2C6.125 1.90063 6.16455 1.80518 6.23486 1.73486C6.30518 1.66455 6.40039 1.625 6.5 1.625C6.59961 1.625 6.69482 1.66455 6.76514 1.73486C6.83545 1.80518 6.875 1.90063 6.875 2V4.625H7C7.01855 4.625 7.03662 4.62622 7.05469 4.62891C7.0835 4.63306 7.11133 4.64062 7.13818 4.65137C7.18555 4.67017 7.22852 4.69824 7.26514 4.73486C7.33545 4.80518 7.375 4.90063 7.375 5C7.375 5.09937 7.33545 5.19482 7.26514 5.26514C7.19482 5.33545 7.09961 5.375 7 5.375ZM8 2.375H8.5C8.59961 2.375 8.69482 2.33545 8.76514 2.26514C8.83545 2.19482 8.875 2.09937 8.875 2C8.875 1.90063 8.83545 1.80518 8.76514 1.73486C8.729 1.69897 8.68652 1.6709 8.64014 1.65234C8.61865 1.64355 8.59619 1.63672 8.57324 1.63208C8.54932 1.62744 8.5249 1.625 8.5 1.625H8C7.90039 1.625 7.80518 1.66455 7.73486 1.73486C7.66455 1.80518 7.625 1.90063 7.625 2C7.625 2.02222 7.62695 2.04419 7.63086 2.06567C7.63379 2.08203 7.6377 2.09839 7.64307 2.11426L7.65283 2.14185C7.67139 2.1875 7.69922 2.22949 7.73486 2.26514C7.80518 2.33545 7.90039 2.375 8 2.375ZM8.125 6.875H6.875V8.125H8.125V6.875ZM8.875 6.5V8.125H11.125V8C11.125 7.90063 11.1646 7.80518 11.2349 7.73486C11.2598 7.70996 11.2876 7.68896 11.3179 7.67212C11.373 7.6416 11.4355 7.625 11.5 7.625C11.5317 7.625 11.5635 7.62915 11.5938 7.63696C11.6157 7.64258 11.6367 7.65015 11.6572 7.65967C11.6973 7.67798 11.7334 7.70337 11.7651 7.73486C11.8354 7.80518 11.875 7.90063 11.875 8V8.5C11.875 8.59937 11.8354 8.69482 11.7651 8.76514C11.7432 8.78711 11.7188 8.80591 11.6929 8.82153L11.667 8.83545L11.6489 8.84399C11.6025 8.86426 11.5518 8.875 11.5 8.875H8.5H6.875V11.125H7C7.09961 11.125 7.19482 11.1646 7.26514 11.2349C7.29639 11.2661 7.32178 11.3022 7.33984 11.3416C7.36279 11.3909 7.375 11.4448 7.375 11.5C7.375 11.5515 7.36426 11.6018 7.34473 11.6482L7.33057 11.6775C7.32129 11.6948 7.31055 11.7114 7.29834 11.7273C7.28857 11.7405 7.27734 11.7532 7.26514 11.7651C7.19482 11.8354 7.09961 11.875 7 11.875H6.5C6.40039 11.875 6.30518 11.8354 6.23486 11.7651C6.16455 11.6948 6.125 11.5994 6.125 11.5V8.5V6.875H3.875V7C3.875 7.03076 3.87109 7.06104 3.86377 7.09058C3.85791 7.11401 3.8501 7.13672 3.83984 7.15845C3.83105 7.177 3.8208 7.19507 3.80908 7.21216L3.7915 7.23633L3.76514 7.26514C3.69482 7.33545 3.59961 7.375 3.5 7.375C3.43359 7.375 3.36914 7.35742 3.31299 7.3252C3.28467 7.30884 3.2583 7.28882 3.23486 7.26514C3.16455 7.19482 3.125 7.09937 3.125 7V6.5C3.125 6.45117 3.13477 6.40332 3.15283 6.35889C3.17139 6.31274 3.19922 6.27051 3.23486 6.23486C3.26074 6.20898 3.29004 6.18726 3.32178 6.16992C3.3501 6.15454 3.38037 6.14307 3.41162 6.1355C3.43994 6.12866 3.46973 6.125 3.5 6.125H6.5H8.125V3.875H8C7.90039 3.875 7.80518 3.83545 7.73486 3.76514C7.69775 3.72803 7.66895 3.68408 7.65039 3.63599C7.63379 3.59302 7.625 3.54688 7.625 3.5C7.625 3.40063 7.66455 3.30518 7.73486 3.23486C7.80518 3.16455 7.90039 3.125 8 3.125H8.5C8.59961 3.125 8.69482 3.16455 8.76514 3.23486C8.83545 3.30518 8.875 3.40063 8.875 3.5V6.5ZM8.23486 13.2651C8.30518 13.3354 8.40039 13.375 8.5 13.375H11.5C11.5571 13.375 11.6128 13.3621 11.6631 13.3376C11.7007 13.3196 11.7354 13.2952 11.7651 13.2651C11.8354 13.1948 11.875 13.0994 11.875 13V11.5C11.875 11.4006 11.8354 11.3052 11.7651 11.2349C11.6948 11.1646 11.5996 11.125 11.5 11.125C11.4004 11.125 11.3052 11.1646 11.2349 11.2349C11.1646 11.3052 11.125 11.4006 11.125 11.5V12.625H8.875V11V10C8.875 9.90063 8.83545 9.80518 8.76514 9.73486C8.69482 9.66455 8.59961 9.625 8.5 9.625H8C7.90039 9.625 7.80518 9.66455 7.73486 9.73486C7.69824 9.77148 7.66992 9.81494 7.65137 9.8623C7.64258 9.88428 7.63574 9.90698 7.63135 9.93018C7.62695 9.95288 7.625 9.97632 7.625 10C7.625 10.0994 7.66455 10.1948 7.73486 10.2651C7.80518 10.3354 7.90039 10.375 8 10.375H8.125V11V13C8.125 13.0994 8.16455 13.1948 8.23486 13.2651ZM7 13.375H6.5C6.48291 13.375 6.46582 13.3738 6.44922 13.3713C6.42529 13.3682 6.40186 13.3628 6.37939 13.3552C6.32568 13.3369 6.27588 13.3062 6.23486 13.2651C6.16455 13.1948 6.125 13.0994 6.125 13C6.125 12.9006 6.16455 12.8052 6.23486 12.7349C6.30518 12.6646 6.40039 12.625 6.5 12.625H7L7.02832 12.626L7.05762 12.6294C7.07275 12.6318 7.08789 12.6353 7.10205 12.6392L7.10938 12.6414L7.13672 12.6509C7.18457 12.6694 7.22803 12.698 7.26514 12.7349C7.33545 12.8052 7.375 12.9006 7.375 13C7.375 13.0994 7.33545 13.1948 7.26514 13.2651C7.22754 13.3025 7.18311 13.3313 7.13477 13.3499C7.09229 13.3662 7.04639 13.375 7 13.375ZM5 8.875H2C1.90039 8.875 1.80518 8.83545 1.73486 8.76514C1.69385 8.72412 1.66357 8.67456 1.64502 8.62085C1.63184 8.58228 1.625 8.5415 1.625 8.5C1.625 8.4707 1.62842 8.44165 1.63525 8.41357C1.65137 8.34644 1.68555 8.28442 1.73486 8.23486C1.80518 8.16455 1.90039 8.125 2 8.125H4.625V8C4.625 7.93555 4.6416 7.87256 4.67285 7.81738C4.68945 7.78735 4.70996 7.75952 4.73486 7.73486C4.76855 7.70142 4.80762 7.6748 4.8501 7.65625C4.89697 7.63599 4.94775 7.625 5 7.625C5.06445 7.625 5.12695 7.6416 5.18213 7.67236C5.2124 7.68921 5.24023 7.71021 5.26514 7.73486C5.30615 7.77612 5.33691 7.82593 5.35547 7.88013C5.36084 7.896 5.36523 7.91235 5.36816 7.92871C5.37256 7.95215 5.375 7.97607 5.375 8V8.5C5.375 8.59937 5.33545 8.69482 5.26514 8.76514C5.19482 8.83545 5.09961 8.875 5 8.875ZM1.73486 7.26514C1.80518 7.33545 1.90039 7.375 2 7.375C2.09961 7.375 2.19482 7.33545 2.26514 7.26514C2.2959 7.23438 2.32031 7.19897 2.33887 7.1604C2.34961 7.1377 2.35791 7.11401 2.36377 7.0896C2.37109 7.06055 2.375 7.03052 2.375 7V6.5C2.375 6.40063 2.33545 6.30518 2.26514 6.23486C2.24316 6.21289 2.21875 6.19409 2.19287 6.17847C2.13525 6.1438 2.06885 6.125 2 6.125C1.93701 6.125 1.87598 6.14062 1.82178 6.17017C1.81006 6.17651 1.79883 6.18335 1.78809 6.19092L1.7749 6.20068C1.76025 6.21118 1.74756 6.22241 1.73486 6.23486C1.71094 6.25879 1.69043 6.28564 1.67383 6.3147C1.66455 6.33154 1.65625 6.34888 1.64941 6.36694C1.6333 6.40894 1.625 6.4541 1.625 6.5V7C1.625 7.02393 1.62695 7.04736 1.63135 7.07056C1.63525 7.08911 1.64014 7.10718 1.64648 7.125C1.66504 7.17725 1.69482 7.22534 1.73486 7.26514ZM9.625 7C9.625 7.09937 9.66455 7.19482 9.73486 7.26514C9.80518 7.33545 9.90039 7.375 10 7.375C10.0996 7.375 10.1948 7.33545 10.2651 7.26514C10.3354 7.19482 10.375 7.09937 10.375 7V6.875H13C13.0542 6.875 13.1069 6.86328 13.1553 6.84155L13.1895 6.82373C13.2168 6.80762 13.2422 6.78809 13.2651 6.76514C13.2964 6.73364 13.3218 6.69702 13.3403 6.65747C13.3628 6.60864 13.375 6.55493 13.375 6.5C13.375 6.45337 13.3662 6.40747 13.3496 6.36475C13.3403 6.34058 13.3281 6.31738 13.314 6.29541L13.2954 6.26929C13.2861 6.25732 13.2759 6.24585 13.2651 6.23486C13.1948 6.16455 13.0996 6.125 13 6.125H10C9.90039 6.125 9.80518 6.16455 9.73486 6.23486C9.66455 6.30518 9.625 6.40063 9.625 6.5V7ZM13 8.875C12.9004 8.875 12.8052 8.83545 12.7349 8.76514C12.6846 8.7146 12.6499 8.65112 12.6343 8.58252C12.6279 8.55566 12.625 8.52808 12.625 8.5V8C12.625 7.95386 12.6338 7.90869 12.6499 7.86646C12.6562 7.84912 12.6641 7.83252 12.6733 7.81641C12.6899 7.78687 12.7104 7.75928 12.7349 7.73486C12.8052 7.66455 12.9004 7.625 13 7.625C13.0996 7.625 13.1948 7.66455 13.2651 7.73486C13.2905 7.76025 13.312 7.78906 13.3291 7.82031C13.3589 7.875 13.375 7.93652 13.375 8V8.5C13.375 8.59937 13.3354 8.69482 13.2651 8.76514C13.1948 8.83545 13.0996 8.875 13 8.875ZM10.1489 11.844C10.1021 11.8643 10.0518 11.875 10 11.875C9.90039 11.875 9.80518 11.8354 9.73486 11.7651C9.69189 11.7222 9.66064 11.6699 9.64258 11.6133C9.63086 11.5769 9.625 11.5388 9.625 11.5V10C9.625 9.90063 9.66455 9.80518 9.73486 9.73486C9.80518 9.66455 9.90039 9.625 10 9.625H13C13.0996 9.625 13.1948 9.66455 13.2651 9.73486C13.3354 9.80518 13.375 9.90063 13.375 10C13.375 10.0994 13.3354 10.1948 13.2651 10.2651C13.2354 10.2952 13.2007 10.3196 13.1631 10.3376C13.1128 10.3621 13.0571 10.375 13 10.375H10.375V11.5C10.375 11.5994 10.3354 11.6948 10.2651 11.7651L10.2402 11.7878C10.2285 11.7974 10.2168 11.8062 10.2041 11.8142C10.1865 11.8257 10.168 11.8357 10.1489 11.844ZM12.7349 13.2651C12.8052 13.3354 12.9004 13.375 13 13.375C13.0488 13.375 13.0962 13.3655 13.1406 13.3477C13.1865 13.3289 13.229 13.301 13.2651 13.2651C13.3354 13.1948 13.375 13.0994 13.375 13V11.5C13.375 11.4006 13.3354 11.3052 13.2651 11.2349C13.1948 11.1646 13.0996 11.125 13 11.125C12.9004 11.125 12.8052 11.1646 12.7349 11.2349C12.6646 11.3052 12.625 11.4006 12.625 11.5V13C12.625 13.0994 12.6646 13.1948 12.7349 13.2651Z" fill="currentColor"/>
<path d="M2.5 2.5H4.5V4.5H2.5V2.5Z" fill="currentColor"/>
<path d="M10.5 2.5H12.5V4.5H10.5V2.5Z" fill="currentColor"/>
<path d="M2.5 10.5H4.5V12.5H2.5V10.5Z" fill="currentColor"/>
</svg>
