<svg width="15" height="15" viewBox="0 0 15 15" fill="none" xmlns="http://www.w3.org/2000/svg">
<path d="M0.908203 10.6904V10.9284C0.908196 11.0668 0.935451 11.2039 0.988412 11.3318C1.04137 11.4596 1.119 11.5758 1.21687 11.6737C1.31473 11.7716 1.43092 11.8492 1.55879 11.9022C1.68666 11.9552 1.82371 11.9824 1.96212 11.9824H13.0378C13.3173 11.9824 13.5854 11.8714 13.7831 11.6737C13.9807 11.476 14.0918 11.208 14.0918 10.9284V10.6904H0.908203Z" fill="currentColor"/>
<path d="M13.0371 3.80856C13.0371 3.59878 12.9538 3.39759 12.8054 3.24926C12.6571 3.10092 12.4559 3.01758 12.2461 3.01758H2.75378C2.64991 3.01758 2.54706 3.03805 2.4511 3.0778C2.35514 3.11755 2.26795 3.17582 2.19451 3.24927C2.12107 3.32272 2.06282 3.40992 2.02307 3.50588C1.98333 3.60184 1.96288 3.7047 1.96289 3.80856V10.1104H13.0371V3.80856ZM9.87305 6.59297C9.87305 7.02943 9.75558 7.45785 9.53297 7.83328C9.31036 8.20871 8.99082 8.51731 8.60786 8.7267L7.5 9.33254L6.39201 8.72668C6.00909 8.51726 5.68958 8.20866 5.467 7.83324C5.24441 7.45782 5.12696 7.02941 5.12695 6.59297V4.81607L7.5 4.05911L9.87305 4.81607V6.59297Z" fill="currentColor"/>
<path d="M6.47815 6.59963C6.45126 6.57263 6.4193 6.55119 6.38411 6.53655C6.34892 6.52191 6.31118 6.51435 6.27307 6.51431C6.23495 6.51428 6.19721 6.52175 6.16198 6.53632C6.12676 6.55089 6.09476 6.57226 6.06781 6.59921C6.04086 6.62617 6.01949 6.65817 6.00492 6.69339C5.99035 6.72861 5.98287 6.76636 5.98291 6.80447C5.98295 6.84259 5.9905 6.88032 6.00514 6.91551C6.01978 6.9507 6.04122 6.98266 6.06823 7.00956L6.81367 7.755C6.8406 7.78194 6.87257 7.80331 6.90776 7.81789C6.94295 7.83247 6.98067 7.83997 7.01876 7.83997C7.05685 7.83997 7.09457 7.83247 7.12976 7.81789C7.16495 7.80331 7.19692 7.78194 7.22385 7.755L8.93231 6.04628C8.98667 5.99185 9.01718 5.91806 9.01714 5.84113C9.01709 5.76421 8.98648 5.69045 8.93205 5.63609C8.87762 5.58173 8.80383 5.55122 8.7269 5.55127C8.64998 5.55132 8.57622 5.58192 8.52186 5.63635L7.01864 7.13985L6.47815 6.59963Z" fill="currentColor"/>
</svg>
