<svg width="40" height="32" viewBox="0 0 40 32" fill="none" xmlns="http://www.w3.org/2000/svg">
<g filter="url(#filter0_i_1892_1307)">
<path d="M30 26.0619C30 27.0047 30 27.4761 29.7071 27.769C29.4142 28.0619 28.9428 28.0619 28 28.0619H6C5.05719 28.0619 4.58579 28.0619 4.29289 27.769C4 27.4761 4 27.0047 4 26.0619V11.5361C4 10.5933 4 10.1219 4.29289 9.82898C4.58579 9.53608 5.05719 9.53608 6 9.53608H9.21327C9.48272 9.53608 9.61745 9.53608 9.73282 9.50831C9.88056 9.47275 10.0035 9.41264 10.1223 9.31788C10.2151 9.24389 9.96366 9.56696 10.0642 9.43773V9.43773C11.3411 7.79704 11.9795 6.9767 12.0038 6.6794C12.0384 6.25519 11.911 5.99452 11.5549 5.76135C11.3054 5.59794 10.6188 5.59794 9.24578 5.59794H2C0.895833 5.59794 0 6.47423 0 7.56701V30.0309C0 31.1134 0.895833 32 2 32H32C33.1042 32 34 31.1237 34 30.0309V22.9853C34 21.1675 34 20.2587 33.4306 19.987C32.8613 19.7153 32.1548 20.2871 30.7418 21.4306V21.4306C30.3773 21.7256 30.195 21.8731 30.0975 22.0774C30 22.2817 30 22.5162 30 22.9853V26.0619ZM24.6641 12.2457C25.5834 12.1971 26.043 12.1727 26.3548 12.4685C26.6667 12.7643 26.6667 13.2415 26.6667 14.1959V14.8206C26.6667 16.5518 26.6667 17.4175 27.2161 17.6948C27.7656 17.9721 28.4619 17.4579 29.8547 16.4295L37.8313 10.5395C38.8241 9.80643 39.3205 9.43989 39.3216 8.93662C39.3228 8.43336 38.828 8.06459 37.8385 7.32705L29.8619 1.3816C28.467 0.341912 27.7696 -0.177933 27.2181 0.0988219C26.6667 0.375576 26.6667 1.24544 26.6667 2.98516V3.15464C26.6667 4.07421 26.6667 4.534 26.4064 4.82013C26.1461 5.10625 25.6507 5.15318 24.6599 5.24702C17.183 5.95523 13.5149 10.6099 11.7178 14.8471C10.8738 16.8372 10.4518 17.8322 11.1238 18.295C11.7959 18.7578 12.7014 17.8872 14.5125 16.1458C17.12 13.6388 20.0776 12.4885 24.6641 12.2457Z" fill="white"/>
</g>
<defs>
<filter id="filter0_i_1892_1307" x="0" y="-0.974854" width="39.3218" height="32.9749" filterUnits="userSpaceOnUse" color-interpolation-filters="sRGB">
<feFlood flood-opacity="0" result="BackgroundImageFix"/>
<feBlend mode="normal" in="SourceGraphic" in2="BackgroundImageFix" result="shape"/>
<feColorMatrix in="SourceAlpha" type="matrix" values="0 0 0 0 0 0 0 0 0 0 0 0 0 0 0 0 0 0 127 0" result="hardAlpha"/>
<feOffset dy="-1"/>
<feGaussianBlur stdDeviation="1"/>
<feComposite in2="hardAlpha" operator="arithmetic" k2="-1" k3="1"/>
<feColorMatrix type="matrix" values="0 0 0 0 0 0 0 0 0 0 0 0 0 0 0 0 0 0 0.25 0"/>
<feBlend mode="normal" in2="shape" result="effect1_innerShadow_1892_1307"/>
</filter>
</defs>
</svg>
