<svg width="13" height="12" viewBox="0 0 13 12" fill="none" xmlns="http://www.w3.org/2000/svg">
<path d="M9.59512 1.87637L12.7131 4.99434C12.8959 5.17715 13 5.42852 13 5.6875C13 5.94648 12.8959 6.19785 12.7131 6.38066L9.59512 9.49863C9.43262 9.66113 9.21426 9.75 8.98574 9.75C8.51094 9.75 8.125 9.36406 8.125 8.88926V7.3125H4.875C4.42559 7.3125 4.0625 6.94941 4.0625 6.5V4.875C4.0625 4.42559 4.42559 4.0625 4.875 4.0625H8.125V2.48574C8.125 2.01094 8.51094 1.625 8.98574 1.625C9.21426 1.625 9.43262 1.71641 9.59512 1.87637ZM4.0625 1.625H2.4375C1.98809 1.625 1.625 1.98809 1.625 2.4375V8.9375C1.625 9.38691 1.98809 9.75 2.4375 9.75H4.0625C4.51191 9.75 4.875 10.1131 4.875 10.5625C4.875 11.0119 4.51191 11.375 4.0625 11.375H2.4375C1.0918 11.375 0 10.2832 0 8.9375V2.4375C0 1.0918 1.0918 0 2.4375 0H4.0625C4.51191 0 4.875 0.363086 4.875 0.8125C4.875 1.26191 4.51191 1.625 4.0625 1.625Z" fill="#1CA64D"/>
</svg>
