<svg width="20" height="20" viewBox="0 0 20 20" fill="none" xmlns="http://www.w3.org/2000/svg">
<path d="M10 12.9463C9.49302 12.9463 8.98604 12.78 8.5536 12.443L2.14844 7.46246V14.4185C2.14844 15.2312 2.80754 15.8906 3.62061 15.8906H16.3794C17.1925 15.8906 17.8516 15.2315 17.8516 14.4185V7.46246L11.4476 12.4464C11.0152 12.7807 10.5061 12.9463 10 12.9463ZM2.64805 6.60677L9.15626 11.6704C9.65281 12.0569 10.3484 12.0569 10.845 11.6704L17.3532 6.60677C17.6399 6.3614 17.8516 5.98416 17.8516 5.58545C17.8516 4.77238 17.1922 4.11328 16.3794 4.11328H3.62061C2.80754 4.11328 2.14844 4.77238 2.14844 5.58545C2.14844 5.98416 2.33277 6.3614 2.64805 6.60677Z" fill="#777E90"/>
</svg>
