<svg width="11" height="13" viewBox="0 0 11 13" fill="none" xmlns="http://www.w3.org/2000/svg">
<path d="M9.8335 5.41619H7.66683H3.3335V3.89953C3.3335 2.76203 4.146 1.73286 5.2835 1.62453C6.5835 1.51619 7.66683 2.54536 7.66683 3.79119C7.66683 4.11619 7.8835 4.33286 8.2085 4.33286H8.75016C9.07516 4.33286 9.29183 4.11619 9.29183 3.79119C9.29183 1.73286 7.66683 0.0536937 5.6085 -0.000472981C3.496 -0.0546396 1.7085 1.67869 1.7085 3.79119V5.41619H1.16683C0.570996 5.41619 0.0834961 5.90369 0.0834961 6.49953V10.2912C0.0834961 11.8079 1.27516 12.9995 2.79183 12.9995H8.2085C9.72516 12.9995 10.9168 11.8079 10.9168 10.2912V6.49953C10.9168 5.90369 10.4293 5.41619 9.8335 5.41619ZM6.04183 9.58703V10.2912C6.04183 10.562 5.771 10.8329 5.50016 10.8329C5.22933 10.8329 4.9585 10.562 4.9585 10.2912V9.58703C4.6335 9.42453 4.41683 9.04536 4.41683 8.66619C4.41683 8.07036 4.90433 7.58286 5.50016 7.58286C6.096 7.58286 6.5835 8.07036 6.5835 8.66619C6.5835 9.04536 6.36683 9.42453 6.04183 9.58703Z" fill="#C4C4C4" fill-opacity="0.6"/>
</svg>
