<svg width="12" height="12" viewBox="0 0 12 12" fill="none" xmlns="http://www.w3.org/2000/svg">
<path d="M10.25 0.152344H1.75C1.28728 0.156903 0.844809 0.342741 0.517603 0.669947C0.190397 0.997152 0.00455911 1.43963 0 1.90234L0 8.40234C0.0176142 8.88083 0.187412 9.34122 0.4847 9.71657C0.781987 10.0919 1.19126 10.3626 1.653 10.4893L7.2325 11.7998C7.44485 11.8548 7.66684 11.8614 7.88207 11.8191C8.0973 11.7767 8.30027 11.6866 8.476 11.5553C8.64593 11.4162 8.78158 11.2399 8.87245 11.0399C8.96331 10.84 9.00695 10.6218 9 10.4023V5.55634C8.99919 5.09132 8.84637 4.63932 8.56482 4.26922C8.28328 3.89911 7.88844 3.63121 7.4405 3.50634L2.028 2.01384C1.98053 2.00071 1.93611 1.97836 1.89727 1.94806C1.85844 1.91776 1.82595 1.88011 1.80167 1.83725C1.77739 1.7944 1.76178 1.74718 1.75575 1.6983C1.74971 1.64941 1.75337 1.59982 1.7665 1.55234C1.77963 1.50487 1.80199 1.46045 1.83229 1.42162C1.86259 1.38278 1.90024 1.3503 1.94309 1.32601C1.98595 1.30173 2.03316 1.28613 2.08205 1.28009C2.13093 1.27406 2.18053 1.27771 2.228 1.29084L3.995 1.77834H4.001H10.25C10.3495 1.77834 10.4448 1.81785 10.5152 1.88818C10.5855 1.9585 10.625 2.05389 10.625 2.15334C10.625 2.2528 10.5855 2.34818 10.5152 2.41851C10.4448 2.48883 10.3495 2.52834 10.25 2.52834H7.6325C7.60223 2.52828 7.57297 2.5392 7.55014 2.55908C7.52731 2.57896 7.51248 2.60645 7.50838 2.63644C7.50429 2.66643 7.51122 2.69689 7.52789 2.72216C7.54455 2.74743 7.56982 2.7658 7.599 2.77384L7.642 2.78584C8.2116 2.94404 8.71818 3.27488 9.092 3.73284C9.10388 3.74704 9.11871 3.75846 9.13547 3.76632C9.15222 3.77418 9.17049 3.77829 9.189 3.77834H10.25C10.3495 3.77834 10.4448 3.81785 10.5152 3.88818C10.5855 3.9585 10.625 4.05389 10.625 4.15334C10.625 4.2528 10.5855 4.34818 10.5152 4.41851C10.4448 4.48883 10.3495 4.52834 10.25 4.52834H9.731C9.71124 4.52822 9.69174 4.5328 9.6741 4.54171C9.65646 4.55062 9.6412 4.5636 9.62957 4.57958C9.61794 4.59555 9.61029 4.61407 9.60723 4.63359C9.60418 4.65311 9.60581 4.67308 9.612 4.69184C9.70392 4.97119 9.75133 5.26326 9.7525 5.55734V9.02834C9.7525 9.0615 9.76567 9.09329 9.78911 9.11673C9.81255 9.14017 9.84435 9.15334 9.8775 9.15334H10.25C10.7141 9.15334 11.1592 8.96897 11.4874 8.64078C11.8156 8.31259 12 7.86747 12 7.40334V1.90334C12.0001 1.67345 11.955 1.44578 11.8671 1.23334C11.7792 1.02091 11.6503 0.827869 11.4878 0.66526C11.3253 0.502652 11.1323 0.373658 10.9199 0.28565C10.7075 0.197642 10.4799 0.152344 10.25 0.152344V0.152344ZM7.75 7.65234C7.75 7.85013 7.69135 8.04346 7.58147 8.20791C7.47159 8.37236 7.31541 8.50054 7.13268 8.57622C6.94996 8.65191 6.74889 8.67171 6.55491 8.63313C6.36093 8.59454 6.18275 8.4993 6.04289 8.35945C5.90304 8.2196 5.8078 8.04142 5.76921 7.84743C5.73063 7.65345 5.75043 7.45239 5.82612 7.26966C5.90181 7.08693 6.02998 6.93076 6.19443 6.82087C6.35888 6.71099 6.55222 6.65234 6.75 6.65234C7.01522 6.65234 7.26957 6.7577 7.45711 6.94524C7.64464 7.13277 7.75 7.38713 7.75 7.65234Z" fill="#1B9B48"/>
</svg>
