<svg width="12" height="12" viewBox="0 0 12 12" fill="none" xmlns="http://www.w3.org/2000/svg">
<path d="M11.5 6C11.5 9.03757 9.03757 11.5 6 11.5C2.96243 11.5 0.5 9.03757 0.5 6C0.5 2.96243 2.96243 0.5 6 0.5C9.03757 0.5 11.5 2.96243 11.5 6ZM6.70048 4.27786C7.07488 4.08406 7.35686 3.73231 7.35686 3.25996C7.35686 2.51628 6.65784 2.07153 5.99972 2.07153C5.3416 2.07153 4.64258 2.51628 4.64258 3.25996C4.64258 3.73231 4.92457 4.08406 5.29896 4.27786C4.93728 4.50922 4.69752 4.91442 4.69752 5.37562V8.62648C4.69752 9.34566 5.28054 9.92868 5.99972 9.92868C6.71891 9.92868 7.30192 9.34566 7.30192 8.62648V5.37562C7.30192 4.91442 7.06216 4.50922 6.70048 4.27786Z" fill="currentColor" stroke="currentColor"/>
</svg>
