<svg width="12" height="12" viewBox="0 0 12 12" fill="none" xmlns="http://www.w3.org/2000/svg">
<path d="M11.342 4.697L10.4019 4.5775C10.3244 4.339 10.2289 4.109 10.1174 3.8905L10.6979 3.143C10.933 2.8405 10.9055 2.4135 10.6369 2.1535L9.84941 1.366C9.5869 1.095 9.15988 1.068 8.85687 1.3025L8.11034 1.883C7.89183 1.7715 7.66182 1.676 7.42281 1.5985L7.3033 0.66C7.2583 0.2835 6.93879 0 6.56027 0H5.44023C5.06171 0 4.7422 0.2835 4.6972 0.6585L4.57769 1.5985C4.33868 1.676 4.10867 1.771 3.89016 1.883L3.14313 1.3025C2.84112 1.068 2.4141 1.095 2.15359 1.3635L1.36606 2.1505C1.09505 2.4135 1.06754 2.8405 1.30255 3.1435L1.88308 3.8905C1.77107 4.109 1.67607 4.339 1.59857 4.5775L0.660028 4.697C0.283512 4.742 0 5.0615 0 5.44V6.56C0 6.9385 0.283512 7.258 0.658527 7.303L1.59857 7.4225C1.67607 7.661 1.77157 7.891 1.88308 8.1095L1.30255 8.857C1.06754 9.1595 1.09505 9.5865 1.36356 9.8465L2.15109 10.634C2.4141 10.9045 2.84062 10.9315 3.14363 10.697L3.89066 10.1165C4.10917 10.2285 4.33918 10.324 4.57769 10.401L4.6972 11.339C4.7422 11.7165 5.06171 12 5.44023 12H6.56027C6.93879 12 7.2583 11.7165 7.3033 11.3415L7.42281 10.4015C7.66132 10.324 7.89133 10.2285 8.10984 10.117L8.85737 10.6975C9.15988 10.9325 9.5869 10.905 9.84691 10.6365L10.6344 9.849C10.9055 9.586 10.933 9.1595 10.6979 8.8565L10.1174 8.1095C10.2294 7.891 10.3249 7.661 10.4019 7.4225L11.34 7.303C11.7165 7.258 12 6.9385 12 6.56V5.44C12.0005 5.0615 11.717 4.742 11.342 4.697ZM6.00025 8.5C4.62169 8.5 3.50015 7.3785 3.50015 6C3.50015 4.6215 4.62169 3.5 6.00025 3.5C7.37881 3.5 8.50035 4.6215 8.50035 6C8.50035 7.3785 7.37881 8.5 6.00025 8.5Z" fill="currentColor"/>
</svg>
