<svg width="24" height="24" viewBox="0 0 24 24" fill="none" xmlns="http://www.w3.org/2000/svg">
<path d="M22.6839 9.394L20.8039 9.155C20.6489 8.678 20.4578 8.218 20.2348 7.781L21.3959 6.286C21.8659 5.681 21.8109 4.827 21.2739 4.307L19.6988 2.732C19.1738 2.19 18.3198 2.136 17.7137 2.605L16.2207 3.766C15.7837 3.543 15.3236 3.352 14.8456 3.197L14.6066 1.32C14.5166 0.567 13.8776 0 13.1205 0H10.8805C10.1234 0 9.4844 0.567 9.39439 1.317L9.15538 3.197C8.67736 3.352 8.21734 3.542 7.78032 3.766L6.28626 2.605C5.68224 2.136 4.8282 2.19 4.30718 2.727L2.73211 4.301C2.19009 4.827 2.13509 5.681 2.60511 6.287L3.76616 7.781C3.54215 8.218 3.35214 8.678 3.19713 9.155L1.32006 9.394C0.567024 9.484 0 10.123 0 10.88V13.12C0 13.877 0.567024 14.516 1.31705 14.606L3.19713 14.845C3.35214 15.322 3.54315 15.782 3.76616 16.219L2.60511 17.714C2.13509 18.319 2.19009 19.173 2.72711 19.693L4.30218 21.268C4.8282 21.809 5.68124 21.863 6.28726 21.394L7.78132 20.233C8.21834 20.457 8.67836 20.648 9.15538 20.802L9.39439 22.678C9.4844 23.433 10.1234 24 10.8805 24H13.1205C13.8776 24 14.5166 23.433 14.6066 22.683L14.8456 20.803C15.3226 20.648 15.7827 20.457 16.2197 20.234L17.7147 21.395C18.3198 21.865 19.1738 21.81 19.6938 21.273L21.2689 19.698C21.8109 19.172 21.8659 18.319 21.3959 17.713L20.2348 16.219C20.4589 15.782 20.6499 15.322 20.8039 14.845L22.6799 14.606C23.433 14.516 24 13.877 24 13.12V10.88C24.001 10.123 23.434 9.484 22.6839 9.394ZM12.0005 17C9.24338 17 7.00029 14.757 7.00029 12C7.00029 9.243 9.24338 7 12.0005 7C14.7576 7 17.0007 9.243 17.0007 12C17.0007 14.757 14.7576 17 12.0005 17Z" fill="white"/>
</svg>
