<svg width="12" height="13" viewBox="0 0 12 13" fill="none" xmlns="http://www.w3.org/2000/svg">
                        <path d="M6 6C7.65685 6 9 4.65685 9 3C9 1.34315 7.65685 0 6 0C4.34315 0 3 1.34315 3 3C3 4.65685 4.34315 6 6 6Z" fill="#78889B" />
                        <path
                            d="M12 11.25V12C12 12.1989 11.921 12.3897 11.7803 12.5303C11.6397 12.671 11.4489 12.75 11.25 12.75H0.75C0.551088 12.75 0.360322 12.671 0.21967 12.5303C0.0790178 12.3897 0 12.1989 0 12V11.25C0 10.0565 0.474106 8.91193 1.31802 8.06802C2.16193 7.22411 3.30653 6.75 4.5 6.75H7.5C8.69347 6.75 9.83807 7.22411 10.682 8.06802C11.5259 8.91193 12 10.0565 12 11.25Z"
                            fill="#78889B"
                        />
                    </svg>