<svg width="8" height="10" viewBox="0 0 8 10" fill="none" xmlns="http://www.w3.org/2000/svg">
<path d="M0.450193 4.05139H6.75233C6.87425 4.05139 6.97979 4.00688 7.06885 3.91777C7.15786 3.82869 7.20255 3.7232 7.20255 3.60127C7.20255 3.47935 7.15788 3.37391 7.06885 3.2847L3.91777 0.133624C3.82873 0.0446399 3.72327 0 3.60127 0C3.47928 0 3.37381 0.0446399 3.2847 0.133624L0.133624 3.2847C0.0445167 3.37381 0 3.47935 0 3.60127C0 3.72317 0.0445167 3.82869 0.133624 3.91777C0.22283 4.00688 0.328296 4.05139 0.450193 4.05139Z" fill="black"/>
<path d="M6.75233 5.84961H0.450193C0.328197 5.84961 0.222732 5.89415 0.133624 5.98316C0.0445167 6.07227 0 6.17773 0 6.29965C0 6.42158 0.0445167 6.52712 0.133624 6.61617L3.2847 9.76721C3.37391 9.85631 3.47938 9.90093 3.60127 9.90093C3.72317 9.90093 3.82873 9.85631 3.91777 9.76721L7.06885 6.61615C7.15786 6.52712 7.20255 6.42158 7.20255 6.29963C7.20255 6.17773 7.15788 6.07227 7.06885 5.98313C6.97982 5.89405 6.87425 5.84961 6.75233 5.84961Z" fill="black"/>
</svg>
