<svg width="18" height="18" viewBox="0 0 18 18" fill="none" xmlns="http://www.w3.org/2000/svg">
<circle cx="9" cy="9" r="9" fill="#ECECEC"/>
<path d="M8.11621 13.9326H9.59277V6.74121H8.11621V13.9326ZM8.85449 5.68848C9.33301 5.68848 9.71582 5.3125 9.71582 4.84766C9.71582 4.37598 9.33301 4 8.85449 4C8.38281 4 8 4.37598 8 4.84766C8 5.3125 8.38281 5.68848 8.85449 5.68848Z" fill="#1B9B48"/>
<path d="M8.11621 13.9326H9.59277V6.74121H8.11621V13.9326ZM8.85449 5.68848C9.33301 5.68848 9.71582 5.3125 9.71582 4.84766C9.71582 4.37598 9.33301 4 8.85449 4C8.38281 4 8 4.37598 8 4.84766C8 5.3125 8.38281 5.68848 8.85449 5.68848Z" fill="#42413F"/>
</svg>
