<svg width="10" height="10" viewBox="0 0 10 10" fill="none" xmlns="http://www.w3.org/2000/svg">
<path d="M0.5 4.48062C0.5 4.32873 0.569045 4.18508 0.687652 4.09019L4.68765 0.890191C4.87026 0.744103 5.12974 0.744103 5.31235 0.89019L9.31235 4.09019C9.43095 4.18508 9.5 4.32873 9.5 4.48062V9C9.5 9.27614 9.27614 9.5 9 9.5H7C6.72386 9.5 6.5 9.27614 6.5 9V7.66667C6.5 6.83824 5.82843 6.16667 5 6.16667C4.17157 6.16667 3.5 6.83824 3.5 7.66667V9C3.5 9.27614 3.27614 9.5 3 9.5H1C0.723858 9.5 0.5 9.27614 0.5 9V4.48062Z" fill="black" stroke="black"/>
</svg>
