<svg width="8" height="10" viewBox="0 0 8 10" fill="none" xmlns="http://www.w3.org/2000/svg">
<g clip-path="url(#clip0_19_226)">
<path d="M3.94728 4.47034C5.18265 4.47034 6.18412 3.46962 6.18412 2.23517C6.18412 1.00072 5.18265 0 3.94728 0C2.71191 0 1.71045 1.00072 1.71045 2.23517C1.71045 3.46962 2.71191 4.47034 3.94728 4.47034Z" fill="#1B9B48"/>
<path d="M3.94728 4.47034C5.18265 4.47034 6.18412 3.46962 6.18412 2.23517C6.18412 1.00072 5.18265 0 3.94728 0C2.71191 0 1.71045 1.00072 1.71045 2.23517C1.71045 3.46962 2.71191 4.47034 3.94728 4.47034Z" fill="black"/>
<path d="M3.94736 4.9957C1.7673 4.9957 0 6.76171 0 8.94013C0 9.52104 0.471289 9.99198 1.05264 9.99198H6.84211C7.42346 9.99198 7.89475 9.52104 7.89475 8.94013C7.89473 6.76171 6.12742 4.9957 3.94736 4.9957Z" fill="#1B9B48"/>
<path d="M3.94736 4.9957C1.7673 4.9957 0 6.76171 0 8.94013C0 9.52104 0.471289 9.99198 1.05264 9.99198H6.84211C7.42346 9.99198 7.89475 9.52104 7.89475 8.94013C7.89473 6.76171 6.12742 4.9957 3.94736 4.9957Z" fill="black"/>
</g>
<defs>
<clipPath id="clip0_19_226">
<rect width="8" height="9.99141" fill="white"/>
</clipPath>
</defs>
</svg>
