<svg width="20" height="13" viewBox="0 0 20 13" fill="none" xmlns="http://www.w3.org/2000/svg">
<path d="M19.3548 0H10.3226L0.351562 6.90082V12.6365H19.3548L20 12.2581V11.0599L19.5801 10.6606V9.52778L20 9.21657V7.37325L19.6224 7.01149V5.85262L20 5.52989V3.6866L19.6224 3.35266V2.33703L20 1.84332V0.645157C20 0.288829 19.7111 0 19.3548 0Z" fill="#E5646E"/>
<path d="M10.0137 1.84375H20.0007V3.68707H10.0137V1.84375Z" fill="#F2F2F6"/>
<path d="M10 5.53027L10.3226 7.37359H20V5.53027H10Z" fill="#F2F2F6"/>
<path d="M0.645156 10.3221V7.03711L0 7.37281V9.21613L0.273438 9.44922V10.6602L0 11.0595V12.2576C0 12.6139 0.288867 12.9028 0.645156 12.9028H19.3548C19.7111 12.9028 20 12.6139 20 12.2576H2.58066C1.51172 12.2576 0.645156 11.3911 0.645156 10.3221Z" fill="#DB4655"/>
<path d="M10.3226 0H0.645156L0.234375 0.645157L0.645156 7.37325H10.3226V0Z" fill="#5055A0"/>
<path d="M0.645156 0C0.288867 0 0 0.288829 0 0.645157V7.37325H0.645156V0Z" fill="#3F3F8F"/>
<path d="M1.29289 1.43812C1.11457 1.43812 0.96875 1.29367 0.96875 1.11555C0.96875 0.937422 1.11145 0.792969 1.28977 0.792969H1.29293C1.47125 0.792969 1.61551 0.937422 1.61551 1.11555C1.61551 1.29367 1.47117 1.43812 1.29289 1.43812Z" fill="white"/>
<path d="M1.29289 4.01918C1.11457 4.01918 0.96875 3.87473 0.96875 3.6966C0.96875 3.51848 1.11145 3.37402 1.28977 3.37402H1.29293C1.47125 3.37402 1.61551 3.51848 1.61551 3.6966C1.61551 3.87473 1.47117 4.01918 1.29289 4.01918Z" fill="white"/>
<path d="M1.29289 6.59924C1.11457 6.59924 0.96875 6.45479 0.96875 6.27667C0.96875 6.09855 1.11145 5.9541 1.28977 5.9541H1.29293C1.47125 5.9541 1.61551 6.09855 1.61551 6.27667C1.61551 6.45479 1.47117 6.59924 1.29289 6.59924Z" fill="white"/>
<path d="M1.29289 2.72816C1.11457 2.72816 0.96875 2.58371 0.96875 2.40559C0.96875 2.22746 1.11145 2.08301 1.28977 2.08301H1.29293C1.47125 2.08301 1.61551 2.22746 1.61551 2.40559C1.61547 2.58371 1.47117 2.72816 1.29289 2.72816Z" fill="#F2F2F6"/>
<path d="M1.29289 5.30922C1.11457 5.30922 0.96875 5.16477 0.96875 4.98664C0.96875 4.80852 1.11145 4.66406 1.28977 4.66406H1.29293C1.47125 4.66406 1.61551 4.80852 1.61551 4.98664C1.61551 5.16477 1.47117 5.30922 1.29289 5.30922Z" fill="#F2F2F6"/>
<path d="M9.03508 1.43812C8.85676 1.43812 8.71094 1.29367 8.71094 1.11555C8.71094 0.937422 8.85363 0.792969 9.03195 0.792969H9.03512C9.21344 0.792969 9.3577 0.937422 9.3577 1.11555C9.3577 1.29367 9.2134 1.43812 9.03508 1.43812Z" fill="white"/>
<path d="M9.03508 4.01918C8.85676 4.01918 8.71094 3.87473 8.71094 3.6966C8.71094 3.51848 8.85363 3.37402 9.03195 3.37402H9.03512C9.21344 3.37402 9.3577 3.51848 9.3577 3.6966C9.3577 3.87473 9.2134 4.01918 9.03508 4.01918Z" fill="white"/>
<path d="M9.03508 6.59924C8.85676 6.59924 8.71094 6.45479 8.71094 6.27667C8.71094 6.09855 8.85363 5.9541 9.03195 5.9541H9.03512C9.21344 5.9541 9.3577 6.09855 9.3577 6.27667C9.3577 6.45479 9.2134 6.59924 9.03508 6.59924Z" fill="white"/>
<path d="M9.03508 2.72816C8.85676 2.72816 8.71094 2.58371 8.71094 2.40559C8.71094 2.22746 8.85363 2.08301 9.03195 2.08301H9.03512C9.21344 2.08301 9.3577 2.22746 9.3577 2.40559C9.3577 2.58371 9.2134 2.72816 9.03508 2.72816Z" fill="#F2F2F6"/>
<path d="M9.03508 5.30922C8.85676 5.30922 8.71094 5.16477 8.71094 4.98664C8.71094 4.80852 8.85363 4.66406 9.03195 4.66406H9.03512C9.21344 4.66406 9.3577 4.80852 9.3577 4.98664C9.3577 5.16477 9.2134 5.30922 9.03508 5.30922Z" fill="#F2F2F6"/>
<path d="M3.22844 1.43812C3.05012 1.43812 2.9043 1.29367 2.9043 1.11555C2.9043 0.937422 3.04699 0.792969 3.22531 0.792969H3.22848C3.4068 0.792969 3.55105 0.937422 3.55105 1.11555C3.55105 1.29367 3.40676 1.43812 3.22844 1.43812Z" fill="#F2F2F6"/>
<path d="M3.22844 4.01918C3.05012 4.01918 2.9043 3.87473 2.9043 3.6966C2.9043 3.51848 3.04699 3.37402 3.22531 3.37402H3.22848C3.4068 3.37402 3.55105 3.51848 3.55105 3.6966C3.55105 3.87473 3.40676 4.01918 3.22844 4.01918Z" fill="#F2F2F6"/>
<path d="M3.22844 6.59924C3.05012 6.59924 2.9043 6.45479 2.9043 6.27667C2.9043 6.09855 3.04699 5.9541 3.22531 5.9541H3.22848C3.4068 5.9541 3.55105 6.09855 3.55105 6.27667C3.55105 6.45479 3.40676 6.59924 3.22844 6.59924Z" fill="#F2F2F6"/>
<path d="M3.22844 2.72816C3.05012 2.72816 2.9043 2.58371 2.9043 2.40559C2.9043 2.22746 3.04699 2.08301 3.22531 2.08301H3.22848C3.4068 2.08301 3.55105 2.22746 3.55105 2.40559C3.55102 2.58371 3.40676 2.72816 3.22844 2.72816Z" fill="white"/>
<path d="M3.22844 5.30922C3.05012 5.30922 2.9043 5.16477 2.9043 4.98664C2.9043 4.80852 3.04699 4.66406 3.22531 4.66406H3.22848C3.4068 4.66406 3.55105 4.80852 3.55105 4.98664C3.55105 5.16477 3.40676 5.30922 3.22844 5.30922Z" fill="white"/>
<path d="M2.26164 2.08363C2.08332 2.08363 1.9375 1.93918 1.9375 1.76105C1.9375 1.58293 2.08019 1.43848 2.25851 1.43848H2.26168C2.44 1.43848 2.58425 1.58293 2.58425 1.76105C2.58422 1.93922 2.43996 2.08363 2.26164 2.08363Z" fill="white"/>
<path d="M2.26164 4.66371C2.08332 4.66371 1.9375 4.51926 1.9375 4.34113C1.9375 4.16301 2.08019 4.01855 2.25851 4.01855H2.26168C2.44 4.01855 2.58425 4.16301 2.58425 4.34113C2.58425 4.51926 2.43996 4.66371 2.26164 4.66371Z" fill="white"/>
<path d="M2.26164 3.37367C2.08332 3.37367 1.9375 3.22922 1.9375 3.05109C1.9375 2.87297 2.08019 2.72852 2.25851 2.72852H2.26168C2.44 2.72852 2.58425 2.87297 2.58425 3.05109C2.58425 3.22922 2.43996 3.37367 2.26164 3.37367Z" fill="#F2F2F6"/>
<path d="M2.26164 5.95473C2.08332 5.95473 1.9375 5.81027 1.9375 5.63215C1.9375 5.45402 2.08019 5.30957 2.25851 5.30957H2.26168C2.44 5.30957 2.58425 5.45402 2.58425 5.63215C2.58425 5.81027 2.43996 5.95473 2.26164 5.95473Z" fill="#F2F2F6"/>
<path d="M5.16398 1.43812C4.98566 1.43812 4.83984 1.29367 4.83984 1.11555C4.83984 0.937422 4.98254 0.792969 5.16086 0.792969H5.16402C5.34234 0.792969 5.4866 0.937422 5.4866 1.11555C5.4866 1.29367 5.34227 1.43812 5.16398 1.43812Z" fill="white"/>
<path d="M5.16398 4.01918C4.98566 4.01918 4.83984 3.87473 4.83984 3.6966C4.83984 3.51848 4.98254 3.37402 5.16086 3.37402H5.16402C5.34234 3.37402 5.4866 3.51848 5.4866 3.6966C5.4866 3.87473 5.34227 4.01918 5.16398 4.01918Z" fill="white"/>
<path d="M5.16398 6.59924C4.98566 6.59924 4.83984 6.45479 4.83984 6.27667C4.83984 6.09855 4.98254 5.9541 5.16086 5.9541H5.16402C5.34234 5.9541 5.4866 6.09855 5.4866 6.27667C5.4866 6.45479 5.34227 6.59924 5.16398 6.59924Z" fill="white"/>
<path d="M5.16398 2.72816C4.98566 2.72816 4.83984 2.58371 4.83984 2.40559C4.83984 2.22746 4.98254 2.08301 5.16086 2.08301H5.16402C5.34234 2.08301 5.4866 2.22746 5.4866 2.40559C5.48656 2.58371 5.34227 2.72816 5.16398 2.72816Z" fill="#F2F2F6"/>
<path d="M5.16398 5.30922C4.98566 5.30922 4.83984 5.16477 4.83984 4.98664C4.83984 4.80852 4.98254 4.66406 5.16086 4.66406H5.16402C5.34234 4.66406 5.4866 4.80852 5.4866 4.98664C5.4866 5.16477 5.34227 5.30922 5.16398 5.30922Z" fill="#F2F2F6"/>
<path d="M4.19719 2.08363C4.01887 2.08363 3.87305 1.93918 3.87305 1.76105C3.87305 1.58293 4.01574 1.43848 4.19406 1.43848H4.19723C4.37555 1.43848 4.5198 1.58293 4.5198 1.76105C4.5198 1.93922 4.37551 2.08363 4.19719 2.08363Z" fill="#F2F2F6"/>
<path d="M4.19719 4.66371C4.01887 4.66371 3.87305 4.51926 3.87305 4.34113C3.87305 4.16301 4.01574 4.01855 4.19406 4.01855H4.19723C4.37555 4.01855 4.5198 4.16301 4.5198 4.34113C4.5198 4.51926 4.37551 4.66371 4.19719 4.66371Z" fill="#F2F2F6"/>
<path d="M4.19719 3.37367C4.01887 3.37367 3.87305 3.22922 3.87305 3.05109C3.87305 2.87297 4.01574 2.72852 4.19406 2.72852H4.19723C4.37555 2.72852 4.5198 2.87297 4.5198 3.05109C4.5198 3.22922 4.37551 3.37367 4.19719 3.37367Z" fill="white"/>
<path d="M4.19719 5.95473C4.01887 5.95473 3.87305 5.81027 3.87305 5.63215C3.87305 5.45402 4.01574 5.30957 4.19406 5.30957H4.19723C4.37555 5.30957 4.5198 5.45402 4.5198 5.63215C4.5198 5.81027 4.37551 5.95473 4.19719 5.95473Z" fill="white"/>
<path d="M7.09758 1.43812C6.91926 1.43812 6.77344 1.29367 6.77344 1.11555C6.77344 0.937422 6.91613 0.792969 7.09445 0.792969H7.09762C7.27594 0.792969 7.4202 0.937422 7.4202 1.11555C7.4202 1.29367 7.2759 1.43812 7.09758 1.43812Z" fill="#F2F2F6"/>
<path d="M7.09758 4.01918C6.91926 4.01918 6.77344 3.87473 6.77344 3.6966C6.77344 3.51848 6.91613 3.37402 7.09445 3.37402H7.09762C7.27594 3.37402 7.4202 3.51848 7.4202 3.6966C7.4202 3.87473 7.2759 4.01918 7.09758 4.01918Z" fill="#F2F2F6"/>
<path d="M7.09758 6.59924C6.91926 6.59924 6.77344 6.45479 6.77344 6.27667C6.77344 6.09855 6.91613 5.9541 7.09445 5.9541H7.09762C7.27594 5.9541 7.4202 6.09855 7.4202 6.27667C7.4202 6.45479 7.2759 6.59924 7.09758 6.59924Z" fill="#F2F2F6"/>
<path d="M7.09758 2.72816C6.91926 2.72816 6.77344 2.58371 6.77344 2.40559C6.77344 2.22746 6.91613 2.08301 7.09445 2.08301H7.09762C7.27594 2.08301 7.4202 2.22746 7.4202 2.40559C7.42016 2.58371 7.2759 2.72816 7.09758 2.72816Z" fill="white"/>
<path d="M7.09758 5.30922C6.91926 5.30922 6.77344 5.16477 6.77344 4.98664C6.77344 4.80852 6.91613 4.66406 7.09445 4.66406H7.09762C7.27594 4.66406 7.4202 4.80852 7.4202 4.98664C7.4202 5.16477 7.2759 5.30922 7.09758 5.30922Z" fill="white"/>
<path d="M6.12883 2.08363C5.95051 2.08363 5.80469 1.93918 5.80469 1.76105C5.80469 1.58293 5.94738 1.43848 6.1257 1.43848H6.12887C6.30719 1.43848 6.45145 1.58293 6.45145 1.76105C6.45141 1.93922 6.30715 2.08363 6.12883 2.08363Z" fill="white"/>
<path d="M6.12883 4.66371C5.95051 4.66371 5.80469 4.51926 5.80469 4.34113C5.80469 4.16301 5.94738 4.01855 6.1257 4.01855H6.12887C6.30719 4.01855 6.45145 4.16301 6.45145 4.34113C6.45145 4.51926 6.30715 4.66371 6.12883 4.66371Z" fill="white"/>
<path d="M6.12883 3.37367C5.95051 3.37367 5.80469 3.22922 5.80469 3.05109C5.80469 2.87297 5.94738 2.72852 6.1257 2.72852H6.12887C6.30719 2.72852 6.45145 2.87297 6.45145 3.05109C6.45145 3.22922 6.30715 3.37367 6.12883 3.37367Z" fill="#F2F2F6"/>
<path d="M6.12883 5.95473C5.95051 5.95473 5.80469 5.81027 5.80469 5.63215C5.80469 5.45402 5.94738 5.30957 6.1257 5.30957H6.12887C6.30719 5.30957 6.45145 5.45402 6.45145 5.63215C6.45145 5.81027 6.30715 5.95473 6.12883 5.95473Z" fill="#F2F2F6"/>
<path d="M8.06828 2.08363C7.88996 2.08363 7.74414 1.93918 7.74414 1.76105C7.74414 1.58293 7.88684 1.43848 8.06516 1.43848H8.06832C8.24664 1.43848 8.3909 1.58293 8.3909 1.76105C8.39086 1.93922 8.2466 2.08363 8.06828 2.08363Z" fill="#F2F2F6"/>
<path d="M8.06828 4.66371C7.88996 4.66371 7.74414 4.51926 7.74414 4.34113C7.74414 4.16301 7.88684 4.01855 8.06516 4.01855H8.06832C8.24664 4.01855 8.3909 4.16301 8.3909 4.34113C8.3909 4.51926 8.2466 4.66371 8.06828 4.66371Z" fill="#F2F2F6"/>
<path d="M8.06828 3.37367C7.88996 3.37367 7.74414 3.22922 7.74414 3.05109C7.74414 2.87297 7.88684 2.72852 8.06516 2.72852H8.06832C8.24664 2.72852 8.3909 2.87297 8.3909 3.05109C8.3909 3.22922 8.2466 3.37367 8.06828 3.37367Z" fill="white"/>
<path d="M8.06828 5.95473C7.88996 5.95473 7.74414 5.81027 7.74414 5.63215C7.74414 5.45402 7.88684 5.30957 8.06516 5.30957H8.06832C8.24664 5.30957 8.3909 5.45402 8.3909 5.63215C8.3909 5.81027 8.2466 5.95473 8.06828 5.95473Z" fill="white"/>
<path d="M0.117188 10.5273L0.791406 11.0601H20V9.2168H0.645156L0.117188 10.5273Z" fill="#F2F2F6"/>
<path d="M0 9.21684V11.0602H0.791406C0.697617 10.8328 0.645195 10.584 0.645195 10.3228V9.2168H0L0 9.21684Z" fill="#E1E1E6"/>
</svg>
