<svg width="40" height="16" viewBox="0 0 40 16" fill="none" xmlns="http://www.w3.org/2000/svg">
<g clip-path="url(#clip0_11383_9432)">
<path d="M22.7506 6.73819C22.6405 7.24095 22.4936 7.74374 22.3835 8.24654C21.8696 10.3654 21.3924 12.4483 20.8785 14.5672C20.8418 14.7826 20.7317 14.8545 20.5114 14.8545C20.0342 14.8545 19.5203 14.8545 19.0431 14.8904C18.8228 14.8904 18.7127 14.8185 18.676 14.6031C18.1254 12.161 17.538 9.75484 16.9507 7.31278C16.8773 7.06142 16.8039 6.77411 16.7305 6.52271C16.7305 9.21617 16.7305 11.8737 16.7305 14.5312C16.7305 14.8545 16.6571 14.9263 16.3267 14.8904C15.5925 14.8545 14.8584 14.8904 14.1242 14.8904C13.9407 14.8904 13.8672 14.8545 13.8672 14.639C13.8672 11.4787 13.8672 8.28245 13.8672 5.12211C13.8672 4.04474 14.7482 3.21875 15.8495 3.21875C16.6203 3.21875 17.4279 3.21875 18.1988 3.21875C18.5292 3.21875 18.6392 3.29057 18.7127 3.61379C19.0064 5.12211 19.3735 6.63045 19.6671 8.1388C19.6671 8.17471 19.7038 8.21063 19.7038 8.28245C19.8507 8.21063 19.8506 8.10288 19.8506 7.99514C20.181 6.52271 20.5114 5.01437 20.8051 3.54195C20.8418 3.32649 20.9519 3.25466 21.1722 3.25466C21.943 3.25466 22.7138 3.25466 23.4847 3.25466C24.7695 3.25466 25.6138 4.08065 25.6138 5.30168C25.6138 7.77966 25.6138 10.2576 25.6138 12.7357C25.6138 13.3462 25.6138 13.9925 25.6138 14.6031C25.6138 14.8545 25.5772 14.9263 25.2834 14.9263C24.5493 14.8904 23.7785 14.9263 23.0442 14.9263C22.7873 14.9263 22.7506 14.8545 22.7506 14.639C22.7506 12.1251 22.7873 9.61123 22.7873 7.09734C22.7873 6.98959 22.7873 6.88185 22.7873 6.77411C22.7873 6.7382 22.7506 6.73819 22.7506 6.73819Z" fill="url(#paint0_linear_11383_9432)"/>
<path d="M6.22966 14.7826C4.98156 14.7826 3.73348 14.7826 2.48541 14.7826C1.71454 14.7826 1.20063 14.4235 0.980378 13.7052C0.870253 13.3462 0.796837 12.9511 0.686713 12.556C0.613297 12.3046 0.72342 12.2688 0.943669 12.2688C2.30187 12.2688 3.66007 12.2688 5.05498 12.2688C6.26633 12.2688 7.47771 12.2688 8.68908 12.2688C9.31313 12.2688 9.57006 12.0533 9.60677 11.4428C9.64348 10.8681 9.57006 10.4731 9.09286 10.3295C8.94602 10.2936 8.83593 10.2936 8.72579 10.2936C6.81695 10.2936 4.94485 10.2936 3.03604 10.2936C1.9715 10.2936 1.31075 9.86258 1.01708 8.85703C0.576588 7.49235 0.576589 6.12766 0.980378 4.76301C1.27404 3.68561 1.9715 3.21875 3.10945 3.21875C5.60562 3.21875 8.06504 3.21875 10.5612 3.21875C11.5156 3.21875 12.2131 3.86517 12.2865 4.79893C12.3599 5.76856 12.3599 5.76856 11.3688 5.76856C9.05615 5.76856 6.78024 5.76856 4.46765 5.76856C3.7702 5.76856 3.54995 5.98404 3.54995 6.63045C3.51324 7.42052 3.73348 7.636 4.54107 7.636C6.26633 7.636 7.95491 7.67192 9.68019 7.636C11.1852 7.60009 11.9929 8.10288 12.2865 9.71893C12.5067 10.9041 12.5067 12.0892 12.1397 13.2384C11.8093 14.3517 11.1485 14.8185 9.97388 14.8185C8.68908 14.8185 7.441 14.8185 6.22966 14.7826Z" fill="url(#paint1_linear_11383_9432)"/>
<path d="M30.9196 3.25391C32.536 3.25391 34.1525 3.25391 35.8057 3.25391C36.3934 3.25391 36.9812 3.25391 37.5691 3.25391C38.7447 3.25391 39.5896 4.08133 39.6631 5.19656C39.6631 5.44839 39.6631 5.70022 39.6631 5.91604C39.6631 6.13191 39.5896 6.16787 39.4059 6.16787C38.4875 6.16787 37.5691 6.16787 36.6873 6.16787C36.3934 6.16787 36.32 6.23983 36.32 6.52761C36.32 9.22576 36.32 11.9239 36.32 14.622C36.32 14.9098 36.2832 14.9818 35.9526 14.9818C34.3729 14.9818 32.7932 14.9818 31.2502 14.9818C31.14 14.9818 31.0298 14.9818 30.8828 14.9818C30.9196 14.8739 30.8828 14.766 30.9196 14.658C31.6176 14.658 32.3156 14.658 33.0136 14.658C33.234 14.658 33.2708 14.5861 33.2708 14.3702C33.2708 10.8806 33.234 7.42701 33.3075 3.93742C33.3075 3.72157 33.234 3.6856 33.0136 3.6856C32.3156 3.6856 31.6176 3.6856 30.9196 3.6856C30.9196 3.50573 30.9196 3.36183 30.9196 3.25391Z" fill="url(#paint2_linear_11383_9432)"/>
<path d="M30.9235 14.5869C30.85 14.6948 30.8868 14.8027 30.8868 14.9107C29.8949 15.2344 28.8662 15.5942 27.8743 15.9539C27.6539 16.0259 27.6172 15.9899 27.6172 15.774C27.6172 13.3997 27.6539 11.0613 27.6539 8.68697C27.6539 7.31992 27.6907 5.95286 27.6907 4.58581C27.6907 4.33398 27.7641 4.22604 27.9845 4.1541C28.9764 3.83032 29.9684 3.50654 30.9235 3.21875C30.9235 3.36265 30.9235 3.47057 30.9235 3.61447C30.9235 5.05346 30.9235 6.45652 30.9235 7.89549C30.9235 10.1619 30.9235 12.3923 30.9235 14.5869ZM29.5275 9.15462C29.5275 8.83084 29.307 8.61501 28.9397 8.61501C28.5356 8.61501 28.2049 8.86684 28.2049 9.22658C28.2049 9.51437 28.4621 9.76619 28.8294 9.76619C29.1969 9.76619 29.4908 9.51437 29.5275 9.15462Z" fill="url(#paint3_linear_11383_9432)"/>
<path d="M29.0852 2.75276C28.2406 2.75276 27.6164 2.24917 27.5796 1.52977C27.5429 0.84634 28.2039 0.126933 29.0118 0.0190224C29.7829 -0.0888882 30.444 0.270813 30.7009 0.882305C30.9948 1.70962 30.297 2.64485 29.3055 2.75276C29.1954 2.75276 29.122 2.75276 29.0852 2.75276Z" fill="#FF2828"/>
</g>
<defs>
<linearGradient id="paint0_linear_11383_9432" x1="3.28173" y1="7.14323" x2="24.3538" y2="13.6536" gradientUnits="userSpaceOnUse">
<stop stop-color="#066DD5"/>
<stop offset="1" stop-color="#10E349"/>
</linearGradient>
<linearGradient id="paint1_linear_11383_9432" x1="3.27976" y1="7.14323" x2="24.3519" y2="13.6536" gradientUnits="userSpaceOnUse">
<stop stop-color="#066DD5"/>
<stop offset="1" stop-color="#10E349"/>
</linearGradient>
<linearGradient id="paint2_linear_11383_9432" x1="26.8538" y1="5.35579" x2="37.4001" y2="15.6639" gradientUnits="userSpaceOnUse">
<stop stop-color="#FF423A"/>
<stop offset="1" stop-color="#FFE815"/>
</linearGradient>
<linearGradient id="paint3_linear_11383_9432" x1="26.8575" y1="5.35652" x2="37.4039" y2="15.6646" gradientUnits="userSpaceOnUse">
<stop stop-color="#FF423A"/>
<stop offset="1" stop-color="#FFE815"/>
</linearGradient>
<clipPath id="clip0_11383_9432">
<rect width="39" height="16" fill="white" transform="translate(0.664062)"/>
</clipPath>
</defs>
</svg>
