<svg width="11" height="14" viewBox="0 0 11 14" fill="none" xmlns="http://www.w3.org/2000/svg">
                        <path
                            d="M11 8.01738V2.36533C8.09725 2.31544 5.58329 0 5.58329 0C5.58329 0 3.06934 2.31544 0.166589 2.36533H0V7.87879C0 8.11308 0.0533427 8.51046 0.0533427 8.51046C0.225637 9.39509 1.09681 11.8153 5.49914 13.9939C5.49943 13.9959 5.5 13.998 5.50029 14C5.502 13.9988 5.50371 13.9982 5.50571 13.9974C5.50571 13.9974 5.50913 13.9988 5.51084 14C5.51141 13.998 5.5117 13.9959 5.51198 13.9939C9.86041 11.8421 10.763 9.45519 10.9504 8.54431C10.9835 8.38354 11 8.01738 11 8.01738Z"
                            fill="white"
                        />
                        <path
                            d="M6.50128 4.68766L5.86946 5.25964C5.6273 5.20114 5.37229 5.20108 5.1301 5.25946C4.88791 5.31784 4.66706 5.4326 4.48977 5.59219C4.31248 5.75179 4.185 5.9506 4.12015 6.16862C4.0553 6.38665 4.05537 6.6162 4.12035 6.83419L3.13514 7.71787C2.66395 7.39653 2.27129 6.97879 2 6.5C2.40726 5.78112 3.07552 5.20932 3.89372 4.87963C4.71193 4.54994 5.63082 4.48219 6.49771 4.68766H6.50128ZM7.85773 5.28213C8.33248 5.60347 8.72514 6.02121 9 6.5C8.59246 7.22021 7.92305 7.79293 7.10331 8.12272C6.28358 8.4525 5.36305 8.51943 4.49516 8.31234L5.12698 7.74036C5.36914 7.79885 5.62414 7.79892 5.86633 7.74054C6.10853 7.68216 6.32937 7.5674 6.50666 7.40781C6.68396 7.24821 6.81144 7.0494 6.87628 6.83138C6.94113 6.61335 6.94106 6.3838 6.87608 6.16581L7.8613 5.28213H7.85773ZM7.54159 4.20425C7.67057 4.08814 7.8664 4.08814 7.99538 4.20425C8.14503 4.33896 8.14503 4.57363 7.99538 4.70835L3.45484 8.79575C3.32586 8.91186 3.13003 8.91186 3.00105 8.79575C2.8514 8.66104 2.8514 8.42637 3.00105 8.29165L7.54159 4.20425Z"
                            fill="#909EAE"
                        />
                    </svg>