<svg  width="10" height="10" viewBox="0 0 10 10" fill="none" xmlns="http://www.w3.org/2000/svg">
                                <path d="M0 3C0 1.34315 1.34315 0 3 0H7C8.65685 0 10 1.34315 10 3V7C10 8.65685 8.65685 10 7 10H3C1.34315 10 0 8.65685 0 7V3Z" fill="#EC1723" />
                                <path
                                    fill-rule="evenodd"
                                    clip-rule="evenodd"
                                    d="M5.11673 7.70588C6.67613 7.70588 7.94026 6.44175 7.94026 4.88235C7.94026 3.32296 6.67613 2.05882 5.11673 2.05882C3.55734 2.05882 2.2932 3.32296 2.2932 4.88235C2.2932 6.44175 3.55734 7.70588 5.11673 7.70588ZM4.66041 3.9269C4.52258 3.78907 4.29911 3.78907 4.16128 3.9269C4.02345 4.06474 4.02345 4.2882 4.16128 4.42604L4.61759 4.88235L4.16128 5.33867C4.02345 5.47649 4.02345 5.69998 4.16128 5.8378C4.29911 5.97562 4.52258 5.97562 4.66041 5.8378L5.11673 5.38148L5.57305 5.8378C5.71087 5.97562 5.93435 5.97562 6.07218 5.8378C6.21 5.69998 6.21 5.47649 6.07218 5.33867L5.61586 4.88235L6.07218 4.42604C6.21 4.2882 6.21 4.06474 6.07218 3.9269C5.93435 3.78907 5.71087 3.78907 5.57305 3.9269L5.11673 4.38322L4.66041 3.9269Z"
                                    fill="white"
                                />
                            </svg>