<svg width="33" height="32" viewBox="0 0 33 32" fill="none" xmlns="http://www.w3.org/2000/svg">
<g clip-path="url(#clip0_11383_9426)">
<rect x="3.55469" y="4" width="24.8" height="24.8" fill="#49B66E"/>
<path fill-rule="evenodd" clip-rule="evenodd" d="M31.3674 5.78928C31.3674 2.68687 28.9511 0.171876 25.9703 0.171876L6.35024 0.171875C3.36949 0.171875 0.953126 2.68687 0.953126 5.78928L0.953125 26.2102C0.953125 29.3126 3.36949 31.8276 6.35024 31.8276H25.9703C28.9511 31.8276 31.3674 29.3126 31.3674 26.2102V5.78928ZM16.3135 21.2066C16.3135 23.917 18.4319 26.1218 21.036 26.1218C22.0137 26.1218 22.9229 25.811 23.6772 25.2794L26.022 27.7199C26.1974 27.9025 26.4277 27.9943 26.658 27.9943C26.8883 27.9943 27.1185 27.9025 27.2939 27.7199C27.6456 27.3539 27.6456 26.7622 27.2939 26.3962L24.9491 23.9556C25.4599 23.1704 25.7584 22.2241 25.7584 21.2066C25.7584 18.4962 23.6401 16.2914 21.036 16.2914C18.4319 16.2914 16.3135 18.4962 16.3135 21.2066ZM23.0986 23.3534C23.1187 23.3324 23.1395 23.3127 23.161 23.2942C23.6557 22.7489 23.9594 22.014 23.9594 21.2066C23.9594 19.5288 22.6479 18.1638 21.036 18.1638C19.4241 18.1638 18.1126 19.5288 18.1126 21.2066C18.1126 22.8843 19.4241 24.2494 21.036 24.2494C21.8117 24.2494 22.5178 23.9333 23.0417 23.4183C23.0595 23.396 23.0785 23.3743 23.0986 23.3534ZM8.44273 5.52472H18.7872C20.1545 5.52472 21.2609 6.67629 21.2609 8.09935V14.4283C21.1889 14.4189 21.108 14.4189 21.036 14.4189C17.4379 14.4189 14.5145 17.4617 14.5145 21.2066C14.5145 22.6952 14.9732 24.0621 15.7648 25.1856H8.44273C7.07548 25.1856 5.96907 24.034 5.96907 22.6109V8.09935C5.96907 6.67629 7.07548 5.52472 8.44273 5.52472ZM18.8028 11.5973C18.8028 12.3928 18.2038 12.895 17.2279 12.895C16.4202 12.895 15.9024 12.5593 15.7452 12.1135C15.7181 12.0402 15.7018 11.9612 15.7018 11.885C15.7018 11.6593 15.8509 11.5098 16.0624 11.5098C16.2304 11.5098 16.3416 11.5775 16.4392 11.7581C16.5665 12.0684 16.8728 12.2094 17.2469 12.2094C17.686 12.2094 17.9842 11.9894 17.9842 11.6904C17.9842 11.4223 17.7999 11.27 17.3092 11.1656L16.8945 11.081C16.1139 10.9201 15.7317 10.5308 15.7317 9.92428C15.7317 9.17948 16.3551 8.68574 17.2252 8.68574C17.9408 8.68574 18.4802 8.99893 18.6537 9.52927C18.6727 9.58571 18.6835 9.64499 18.6835 9.71828C18.6835 9.92144 18.5426 10.0597 18.3339 10.0597C18.1495 10.0597 18.0357 9.98349 17.9435 9.80863C17.8134 9.50106 17.5613 9.3741 17.2252 9.3741C16.8213 9.3741 16.553 9.57164 16.553 9.87068C16.553 10.1217 16.74 10.2769 17.2035 10.3728L17.6155 10.4603C18.445 10.6324 18.8028 10.9794 18.8028 11.5973ZM8.55918 12.8809C8.77608 12.8809 8.89805 12.7681 8.97393 12.4972L9.17991 11.8625H10.5922L10.7982 12.5057C10.8714 12.7709 10.9933 12.8809 11.2237 12.8809C11.4623 12.8809 11.633 12.7145 11.633 12.4803C11.633 12.3957 11.6195 12.3195 11.5815 12.2094L10.5081 9.17948C10.3916 8.84653 10.2018 8.69988 9.88198 8.69988C9.57295 8.69988 9.38049 8.85221 9.26665 9.18225L8.19871 12.2094C8.16347 12.3139 8.14449 12.4097 8.14449 12.4803C8.14449 12.7258 8.30443 12.8809 8.55918 12.8809ZM9.35884 11.2023L9.86572 9.53496H9.88471L10.4024 11.2023H9.35884ZM12.43 12.8273H13.5143C14.6879 12.8273 15.3792 12.0684 15.3792 10.7763C15.3792 9.48414 14.6879 8.75626 13.5143 8.75626H12.43C12.1725 8.75626 12.0208 8.91989 12.0208 9.19924V12.3815C12.0208 12.6637 12.1725 12.8273 12.43 12.8273ZM12.8393 12.122V9.45876H13.4167C14.1377 9.45876 14.5443 9.92705 14.5443 10.7791C14.5443 11.6593 14.1486 12.122 13.4167 12.122H12.8393ZM8.205 15.2348C8.205 15.0132 8.37764 14.8336 8.59054 14.8336H14.1418C14.3547 14.8336 14.5274 15.0132 14.5274 15.2348C14.5274 15.4564 14.3547 15.636 14.1418 15.636H8.59054C8.37764 15.636 8.205 15.4564 8.205 15.2348ZM8.59054 17.241C8.37764 17.241 8.205 17.4206 8.205 17.6422C8.205 17.8638 8.37764 18.0435 8.59054 18.0435H12.5227C12.7356 18.0435 12.9082 17.8638 12.9082 17.6422C12.9082 17.4206 12.7356 17.241 12.5227 17.241H8.59054ZM8.205 20.0497C8.205 19.8281 8.37764 19.6485 8.59054 19.6485H12.5227C12.7356 19.6485 12.9082 19.8281 12.9082 20.0497C12.9082 20.2713 12.7356 20.4509 12.5227 20.4509H8.59054C8.37764 20.4509 8.205 20.2713 8.205 20.0497Z" fill="white"/>
</g>
<defs>
<clipPath id="clip0_11383_9426">
<rect width="32" height="32" fill="white" transform="translate(0.164062)"/>
</clipPath>
</defs>
</svg>
