<svg width="22" height="21" viewBox="0 0 22 21" fill="none" xmlns="http://www.w3.org/2000/svg">
<g clip-path="url(#clip0_776_472)">
<path d="M21.2383 10.5C21.2383 4.70101 16.5373 0 10.7383 0C4.93929 0 0.238281 4.70101 0.238281 10.5C0.238281 15.7409 4.078 20.0847 9.09766 20.8724V13.5352H6.43164V10.5H9.09766V8.18672C9.09766 5.55516 10.6652 4.10156 13.0637 4.10156C14.2125 4.10156 15.4141 4.30664 15.4141 4.30664V6.89062H14.09C12.7857 6.89062 12.3789 7.69999 12.3789 8.53035V10.5H15.291L14.8255 13.5352H12.3789V20.8724C17.3986 20.0847 21.2383 15.7409 21.2383 10.5Z" fill="white"/>
<path d="M21.2383 10.5C21.2383 4.70101 16.5373 0 10.7383 0C4.93929 0 0.238281 4.70101 0.238281 10.5C0.238281 15.7409 4.078 20.0847 9.09766 20.8724V13.5352H6.43164V10.5H9.09766V8.18672C9.09766 5.55516 10.6652 4.10156 13.0637 4.10156C14.2125 4.10156 15.4141 4.30664 15.4141 4.30664V6.89062H14.09C12.7857 6.89062 12.3789 7.69999 12.3789 8.53035V10.5H15.291L14.8255 13.5352H12.3789V20.8724C17.3986 20.0847 21.2383 15.7409 21.2383 10.5Z" fill="url(#paint0_linear_776_472)"/>
<path d="M14.8255 13.5352L15.291 10.5H12.3789V8.53035C12.3789 7.69999 12.7857 6.89062 14.09 6.89062H15.4141V4.30664C15.4141 4.30664 14.2124 4.10156 13.0637 4.10156C10.6652 4.10156 9.09766 5.55516 9.09766 8.18672V10.5H6.43164V13.5352H9.09766V20.8724C9.63221 20.9563 10.1801 21 10.7383 21C11.2964 21 11.8443 20.9563 12.3789 20.8724V13.5352H14.8255Z" fill="white"/>
</g>
<defs>
<linearGradient id="paint0_linear_776_472" x1="10.7383" y1="1.00491e-05" x2="10.7383" y2="20.8727" gradientUnits="userSpaceOnUse">
<stop stop-color="#00B2FF"/>
<stop offset="1" stop-color="#006AFF"/>
</linearGradient>
<clipPath id="clip0_776_472">
<rect width="21" height="21" fill="white" transform="translate(0.238281)"/>
</clipPath>
</defs>
</svg>
