<svg width="20" height="20" viewBox="0 0 20 20" fill="none" xmlns="http://www.w3.org/2000/svg">
<path d="M8.34192 3.35156H7.86707C7.47531 3.35156 7.15479 3.67209 7.15479 4.03713V15.9085C7.15479 16.3269 7.47531 16.6475 7.84035 16.6475H8.34192C8.73367 16.6475 9.0542 16.3269 9.0542 15.9352V4.06384C9.0542 3.67209 8.73367 3.35156 8.34192 3.35156ZM5.70351 3.35156C5.44234 3.35156 5.25537 3.56525 5.25537 3.79971V16.1459C5.22866 16.4338 5.46906 16.6475 5.70351 16.6475C5.93797 16.6475 6.17837 16.4338 6.17837 16.1993V3.79971C6.17837 3.56525 5.99139 3.35156 5.70351 3.35156ZM3.59338 3.35156H3.11853C2.72678 3.35156 2.40625 3.67209 2.40625 4.03713V15.9085C2.40625 16.3269 2.72678 16.6475 3.09182 16.6475H3.59338C3.98514 16.6475 4.30566 16.3269 4.30566 15.9352V4.06384C4.30566 3.67209 3.98514 3.35156 3.59338 3.35156ZM16.8893 3.35156H16.4144C16.0227 3.35156 15.7021 3.67209 15.7021 4.06384V15.9352C15.7021 16.3269 16.0227 16.6475 16.4144 16.6475H16.8893C17.281 16.6475 17.6016 16.3269 17.6016 15.9352V4.06384C17.6016 3.67209 17.281 3.35156 16.8893 3.35156ZM14.2776 3.35156C14.0164 3.35156 13.8027 3.56525 13.8027 3.82642V16.1726C13.8027 16.4338 14.0164 16.6475 14.2776 16.6475C14.5388 16.6475 14.7524 16.4338 14.7524 16.1726V3.82642C14.7524 3.56525 14.5388 3.35156 14.2776 3.35156ZM11.191 3.35156H10.7162C10.3244 3.35156 10.0039 3.67209 10.0039 4.06384V15.9352C10.0039 16.3269 10.3244 16.6475 10.7162 16.6475H11.191C11.5828 16.6475 11.9033 16.3269 11.9033 15.9352V4.06384C11.9033 3.67209 11.5828 3.35156 11.191 3.35156Z" fill="#777E90"/>
</svg>
