<svg width="18" height="18" viewBox="0 0 18 18" fill="none" xmlns="http://www.w3.org/2000/svg">
<path d="M9 9C10.6569 9 12 7.65685 12 6C12 4.34315 10.6569 3 9 3C7.34315 3 6 4.34315 6 6C6 7.65685 7.34315 9 9 9Z" fill="#C4C4C4" fill-opacity="0.6"/>
<path d="M15 14.25V15C15 15.1989 14.921 15.3897 14.7803 15.5303C14.6397 15.671 14.4489 15.75 14.25 15.75H3.75C3.55109 15.75 3.36032 15.671 3.21967 15.5303C3.07902 15.3897 3 15.1989 3 15V14.25C3 13.0565 3.47411 11.9119 4.31802 11.068C5.16193 10.2241 6.30653 9.75 7.5 9.75H10.5C11.6935 9.75 12.8381 10.2241 13.682 11.068C14.5259 11.9119 15 13.0565 15 14.25Z" fill="#C4C4C4" fill-opacity="0.6"/>
</svg>
