<svg width="19" height="19" viewBox="0 0 19 19" fill="none" xmlns="http://www.w3.org/2000/svg">
<path d="M10.0461 9.54758C9.90067 9.67887 9.71168 9.75155 9.51572 9.75155C9.31977 9.75155 9.13078 9.67887 8.98531 9.54758L2.27197 3.44383C2.53541 3.26338 2.84724 3.16679 3.16656 3.16675H15.8332C16.1525 3.16679 16.4644 3.26338 16.7278 3.44383L10.0461 9.54758Z" fill="#888888"/>
<path d="M17.4168 4.95581V13.4583C17.4168 14.0882 17.1666 14.6923 16.7212 15.1377C16.2758 15.5831 15.6717 15.8333 15.0418 15.8333H3.9585C3.32861 15.8333 2.72452 15.5831 2.27912 15.1377C1.83372 14.6923 1.5835 14.0882 1.5835 13.4583V4.95581L8.45516 11.2258C8.74496 11.4775 9.11632 11.6154 9.50016 11.6137C9.88879 11.6129 10.2636 11.4692 10.5531 11.21L17.4168 4.95581Z" fill="#888888"/>
</svg>
