<svg width="12" height="12" viewBox="0 0 12 12" fill="none" xmlns="http://www.w3.org/2000/svg">
<path d="M11.4042 3.20093C11.5828 3.45539 11.623 3.74334 11.5248 4.06477L9.68325 10.1317C9.59843 10.4174 9.42767 10.6574 9.17097 10.8516C8.91428 11.0458 8.64084 11.1429 8.35066 11.1429H2.16986C1.82611 11.1429 1.49463 11.0235 1.17544 10.7846C0.856242 10.5458 0.634144 10.2523 0.509144 9.90405C0.402001 9.60494 0.397537 9.32146 0.495751 9.05361C0.495751 9.03575 0.502447 8.97548 0.51584 8.8728C0.529233 8.77012 0.538162 8.68753 0.542626 8.62503C0.54709 8.58932 0.540394 8.54133 0.522537 8.48106C0.50468 8.42079 0.497983 8.37727 0.502447 8.35048C0.511376 8.30137 0.529233 8.2545 0.556019 8.20986C0.582805 8.16521 0.619635 8.11276 0.66651 8.05249C0.713385 7.99222 0.750215 7.93977 0.777001 7.89512C0.879679 7.72548 0.980126 7.52124 1.07834 7.2824C1.17655 7.04356 1.24352 6.83932 1.27923 6.66968C1.29263 6.62503 1.29374 6.55807 1.28258 6.46878C1.27142 6.3795 1.2703 6.317 1.27923 6.28128C1.29263 6.23218 1.33057 6.16968 1.39307 6.09378C1.45557 6.01789 1.49352 5.96655 1.50691 5.93977C1.60066 5.77905 1.69441 5.5737 1.78816 5.3237C1.88191 5.0737 1.93771 4.8728 1.95557 4.72102C1.96004 4.68084 1.95446 4.60941 1.93883 4.50673C1.92321 4.40405 1.92432 4.34155 1.94218 4.31923C1.96004 4.2612 2.00914 4.19311 2.0895 4.11499C2.16986 4.03686 2.21896 3.98664 2.23682 3.96432C2.32164 3.84825 2.41651 3.65963 2.52142 3.39847C2.62633 3.13731 2.68771 2.92191 2.70557 2.75227C2.71004 2.71655 2.70334 2.65963 2.68548 2.58151C2.66763 2.50338 2.66316 2.44423 2.67209 2.40405C2.68102 2.36834 2.70111 2.32816 2.73236 2.28352C2.76361 2.23887 2.80379 2.18753 2.85289 2.1295C2.902 2.07146 2.93995 2.02459 2.96673 1.98887C3.00245 1.9353 3.03928 1.86722 3.07722 1.78463C3.11517 1.70204 3.14865 1.62392 3.17767 1.55026C3.20669 1.4766 3.2424 1.39624 3.28481 1.30919C3.32722 1.22213 3.37075 1.1507 3.41539 1.0949C3.46004 1.0391 3.51919 0.986642 3.59285 0.937535C3.66651 0.888428 3.74687 0.862758 3.83392 0.860526C3.92097 0.858294 4.027 0.870571 4.152 0.897356L4.1453 0.917446C4.31495 0.877267 4.42879 0.857178 4.48682 0.857178H9.5828C9.91316 0.857178 10.1676 0.982178 10.3462 1.23218C10.5248 1.48218 10.5649 1.77236 10.4667 2.10271L8.63191 8.16968C8.47119 8.70093 8.3116 9.04356 8.15311 9.19758C7.99463 9.3516 7.7078 9.42861 7.29262 9.42861H1.47343C1.35289 9.42861 1.26807 9.46209 1.21897 9.52905C1.16986 9.60048 1.16763 9.69646 1.21227 9.817C1.31941 10.1295 1.64084 10.2857 2.17655 10.2857H8.35736C8.48682 10.2857 8.61182 10.2512 8.73236 10.182C8.85289 10.1128 8.93102 10.0201 8.96673 9.90405L10.9757 3.29468C11.0069 3.19646 11.0181 3.06923 11.0091 2.91298C11.1788 2.97995 11.3105 3.07593 11.4042 3.20093ZM4.27923 3.21432C4.26137 3.27236 4.26584 3.32258 4.29262 3.36499C4.31941 3.4074 4.36405 3.42861 4.42655 3.42861H8.49798C8.55602 3.42861 8.61294 3.4074 8.66874 3.36499C8.72454 3.32258 8.76137 3.27236 8.77923 3.21432L8.91986 2.78575C8.93771 2.72771 8.93325 2.67749 8.90646 2.63508C8.87968 2.59267 8.83503 2.57146 8.77253 2.57146H4.70111C4.64307 2.57146 4.58615 2.59267 4.53035 2.63508C4.47454 2.67749 4.43771 2.72771 4.41986 2.78575L4.27923 3.21432ZM3.72343 4.92861C3.70557 4.98664 3.71004 5.03686 3.73682 5.07928C3.76361 5.12169 3.80825 5.14289 3.87075 5.14289H7.94218C8.00021 5.14289 8.05713 5.12169 8.11294 5.07928C8.16874 5.03686 8.20557 4.98664 8.22343 4.92861L8.36405 4.50003C8.38191 4.442 8.37744 4.39178 8.35066 4.34936C8.32387 4.30695 8.27923 4.28575 8.21673 4.28575H4.1453C4.08727 4.28575 4.03035 4.30695 3.97454 4.34936C3.91874 4.39178 3.88191 4.442 3.86405 4.50003L3.72343 4.92861Z" fill="currentColor"/>
</svg>
