<svg width="12" height="10" viewBox="0 0 12 10" fill="none" xmlns="http://www.w3.org/2000/svg">
<path d="M11.7114 5.86939C11.6361 5.74121 11.5028 5.66467 11.3549 5.66467H10.3388V2.50134C10.3388 1.34631 9.39911 0.406982 8.24408 0.406982H4.34613C4.34391 0.406982 4.34208 0.408126 4.33988 0.408242C4.3304 0.408677 4.32136 0.411265 4.312 0.413849C4.30399 0.416046 4.29614 0.417809 4.28882 0.421424C4.28643 0.42259 4.28383 0.4225 4.28149 0.423827C4.27623 0.426801 4.27302 0.431654 4.26833 0.435228C4.26123 0.440583 4.25444 0.445641 4.24858 0.452301C4.2429 0.458755 4.23881 0.46576 4.23455 0.473106C4.23032 0.480318 4.22631 0.487229 4.22352 0.495216C4.22052 0.503778 4.2194 0.512406 4.21821 0.521425C4.21745 0.527125 4.21484 0.532184 4.21484 0.538086C4.21484 0.540674 4.21617 0.542849 4.21631 0.545388C4.21677 0.553904 4.21919 0.561959 4.22137 0.570359C4.22368 0.579239 4.22567 0.587845 4.2297 0.595855C4.23078 0.59803 4.23066 0.600411 4.23188 0.602538L4.95496 1.88098C4.95674 1.88414 4.96022 1.88533 4.96222 1.88828C4.97153 1.90208 4.98286 1.9135 4.99664 1.92289C5.00129 1.92605 5.00516 1.92946 5.01014 1.93198C5.02811 1.94118 5.04764 1.94763 5.06922 1.94763H8.24408C8.54676 1.94763 8.79285 2.19592 8.79285 2.50134L8.79496 5.66467H7.79528C7.64441 5.66467 7.50982 5.74304 7.43511 5.87415C7.36096 6.00452 7.36242 6.15942 7.43823 6.28723L9.21819 9.37036C9.29015 9.5011 9.42199 9.58057 9.57067 9.5824C9.5725 9.5824 9.57434 9.5824 9.57617 9.5824C9.72558 9.5824 9.86016 9.50439 9.93725 9.37219L11.7161 6.28576C11.7894 6.15466 11.7875 5.99902 11.7114 5.86939Z" fill="#1B9B48"/>
<path d="M7.7675 9.38688L7.04442 8.10807C7.01155 8.05007 6.94241 8.02878 6.88228 8.05277H3.75512C3.45263 8.05277 3.20653 7.80411 3.20653 7.49906V4.32474H4.20391C4.35479 4.32474 4.48937 4.24674 4.56408 4.11527C4.63842 3.9849 4.63695 3.82999 4.56115 3.70182L2.78118 0.61869C2.70904 0.487953 2.5772 0.408851 2.42852 0.407021C2.27435 0.397132 2.14013 0.483191 2.06213 0.61686L0.283258 3.70329C0.210017 3.83439 0.211663 3.99039 0.287836 4.12003C0.363091 4.24821 0.496393 4.32475 0.644525 4.32475H1.66058V7.49906C1.66058 8.65409 2.60027 9.59379 3.75512 9.59379H7.65325C7.72576 9.59379 7.78454 9.5352 7.78454 9.46269C7.78454 9.45896 7.78271 9.45584 7.78241 9.45221C7.78261 9.42998 7.77924 9.40759 7.7675 9.38688Z" fill="#1B9B48"/>
</svg>
