<svg width="14" height="14" viewBox="0 0 14 14" fill="none" xmlns="http://www.w3.org/2000/svg">
<path d="M13.5204 3.52021C13.6635 3.37721 13.7062 3.16215 13.6288 2.97531C13.5515 2.78847 13.3692 2.66665 13.1669 2.66665L11.3334 2.66661V0.833266C11.3334 0.631033 11.2116 0.448713 11.0248 0.371326C10.838 0.293933 10.6229 0.33672 10.4799 0.47972L8.8133 2.14643C8.7195 2.24021 8.66683 2.36739 8.66683 2.49999L8.6669 4.39043L7.34556 5.71176C7.23536 5.68236 7.11963 5.66663 7.00016 5.66663C6.26376 5.66663 5.66683 6.26356 5.66683 6.99996C5.66683 7.73636 6.26376 8.33329 7.00016 8.33329C7.73656 8.33329 8.3335 7.73636 8.3335 6.99996C8.3335 6.88049 8.31776 6.76476 8.28836 6.65463L9.60963 5.33331H11.5002C11.6328 5.33331 11.76 5.28063 11.8538 5.18687L13.5204 3.52021ZM7.00016 0.333293C7.8019 0.333293 8.57056 0.47482 9.28256 0.734246L8.34183 1.67502C8.3001 1.71681 8.26176 1.76144 8.22716 1.80845C7.83323 1.7157 7.42243 1.66663 7.00016 1.66663C4.05464 1.66663 1.66683 4.05444 1.66683 6.99996C1.66683 9.94549 4.05464 12.3333 7.00016 12.3333C9.9457 12.3333 12.3335 9.94549 12.3335 6.99996C12.3335 6.57769 12.2844 6.16689 12.1917 5.77296C12.2387 5.73836 12.2834 5.70009 12.3252 5.65826L13.2659 4.71755C13.5253 5.42956 13.6668 6.19823 13.6668 6.99996C13.6668 10.6818 10.682 13.6666 7.00016 13.6666C3.31826 13.6666 0.333496 10.6818 0.333496 6.99996C0.333496 3.31806 3.31826 0.333293 7.00016 0.333293ZM7.00016 2.99996C7.3455 2.99996 7.68056 3.04371 8.00016 3.12598L8.00023 4.11429L7.72403 4.39049C7.71303 4.40147 7.7023 4.41259 7.69176 4.42385C7.47123 4.36479 7.23936 4.33329 7.00016 4.33329C5.5274 4.33329 4.3335 5.5272 4.3335 6.99996C4.3335 8.47269 5.5274 9.66663 7.00016 9.66663C8.4729 9.66663 9.66683 8.47269 9.66683 6.99996C9.66683 6.76076 9.63536 6.52889 9.5763 6.30836C9.58756 6.29783 9.59863 6.28709 9.60963 6.27609L9.88576 5.99996H10.8742C10.9564 6.31956 11.0002 6.65469 11.0002 6.99996C11.0002 9.20909 9.2093 11 7.00016 11C4.79102 11 3.00016 9.20909 3.00016 6.99996C3.00016 4.79082 4.79102 2.99996 7.00016 2.99996Z" fill="currentColor"/>
</svg>
