<svg  width="10" height="10" viewBox="0 0 10 10" fill="none" xmlns="http://www.w3.org/2000/svg">
                                <path
                                    d="M5.00065 0.833374C4.17656 0.833374 3.37098 1.07774 2.68578 1.53558C2.00057 1.99342 1.46652 2.64417 1.15115 3.40553C0.83579 4.16688 0.753276 5.00466 0.914048 5.81292C1.07482 6.62117 1.47166 7.3636 2.05437 7.94632C2.63709 8.52904 3.37952 8.92587 4.18778 9.08665C4.99603 9.24742 5.83381 9.1649 6.59517 8.84954C7.35653 8.53417 8.00727 8.00012 8.46511 7.31492C8.92295 6.62971 9.16732 5.82413 9.16732 5.00004C9.16732 4.45287 9.05955 3.91105 8.85015 3.40553C8.64076 2.9 8.33384 2.44067 7.94693 2.05376C7.56002 1.66685 7.10069 1.35994 6.59517 1.15054C6.08964 0.941148 5.54783 0.833374 5.00065 0.833374ZM6.96315 4.04587L4.87982 6.12921C4.84108 6.16826 4.795 6.19926 4.74423 6.22041C4.69345 6.24157 4.63899 6.25246 4.58399 6.25246C4.52898 6.25246 4.47452 6.24157 4.42375 6.22041C4.37297 6.19926 4.32689 6.16826 4.28815 6.12921L3.45482 5.29587C3.37636 5.21741 3.33228 5.111 3.33228 5.00004C3.33228 4.88908 3.37636 4.78267 3.45482 4.70421C3.53328 4.62575 3.63969 4.58167 3.75065 4.58167C3.86161 4.58167 3.96803 4.62575 4.04649 4.70421L4.58399 5.24587L6.37149 3.45421C6.44995 3.37575 6.55636 3.33167 6.66732 3.33167C6.77828 3.33167 6.88469 3.37575 6.96315 3.45421C7.04161 3.53267 7.08569 3.63908 7.08569 3.75004C7.08569 3.861 7.04161 3.96741 6.96315 4.04587Z"
                                    fill="#1B9B48"
                                />
                            </svg>